<?xml version="1.0" encoding="UTF-8"?>
<svg width="392px" height="499px" viewBox="0 0 392 499" version="1.1" xmlns="http://www.w3.org/2000/svg" xmlns:xlink="http://www.w3.org/1999/xlink">
    <!-- Generator: Sketch 57.1 (83088) - https://sketch.com -->
    <title>backpack</title>
    <desc>Created with Sketch.</desc>
    <defs>
        <path d="M351,68.5 L306.5,35 L289.5,9 L196.5,0 L155,5 L11.5,9 L0.5,95.5 L0.5,179.5 L0,202.5 L18.703,201.488 C20.715,219.572 25.445,238.9 25.976,241.026 L25.976,204.955 C118.96,177.441 211.943,177.466 304.975,205.003 L304.975,241.22 C304.975,241.22 309.974,221.413 312.175,202.556 L330,206.5 L335,114.5 L351,68.5 Z" id="path-1"></path>
    </defs>
    <g id="Page-1" stroke="none" stroke-width="1" fill="none" fill-rule="evenodd">
        <g id="backpack" transform="translate(0.740000, -9.000000)">
            <path d="M380.206,507.666 L10.597,507.666 C8.603,507.666 6.737,507.115 5.143,506.157 C5.258,506.159 5.374,506.16 5.492,506.16 C11.807,506.16 15.086,502.974 17.98,500.158 C20.782,497.439 23.426,494.866 28.73,494.866 C34.034,494.866 36.68,497.439 39.482,500.162 C42.376,502.974 45.655,506.16 51.97,506.16 C58.291,506.16 61.572,502.974 64.469,500.162 C65.541,499.121 66.591,498.101 67.775,497.239 C70.882,498.111 74.157,498.576 77.538,498.576 L84.302,498.576 C84.868,499.086 85.418,499.621 85.974,500.162 C88.865,502.974 92.141,506.16 98.452,506.16 C104.766,506.16 108.044,502.974 110.936,500.162 C111.492,499.621 112.042,499.086 112.608,498.576 L130.767,498.576 C131.333,499.085 131.882,499.619 132.438,500.158 C135.332,502.974 138.613,506.16 144.929,506.16 C151.244,506.16 154.525,502.974 157.42,500.158 C157.975,499.619 158.525,499.085 159.09,498.576 L177.253,498.576 C177.82,499.086 178.37,499.621 178.927,500.162 C181.82,502.974 185.099,506.16 191.415,506.16 C197.73,506.16 201.009,502.974 203.903,500.158 C204.459,499.619 205.009,499.085 205.574,498.576 L223.732,498.576 C224.298,499.086 224.849,499.621 225.405,500.162 C228.299,502.974 231.578,506.16 237.893,506.16 C244.215,506.16 247.496,502.974 250.392,500.162 C250.949,499.621 251.5,499.086 252.066,498.576 L270.225,498.576 C270.791,499.086 271.341,499.621 271.897,500.162 C274.788,502.974 278.064,506.16 284.376,506.16 C290.689,506.16 293.968,502.974 296.859,500.162 C297.415,499.621 297.965,499.086 298.531,498.576 L316.691,498.576 C317.256,499.085 317.806,499.619 318.361,500.158 C321.255,502.974 324.536,506.16 330.852,506.16 C337.168,506.16 340.449,502.974 343.343,500.158 C346.145,497.439 348.791,494.866 354.095,494.866 C359.402,494.866 362.048,497.439 364.85,500.162 C367.744,502.974 371.022,506.16 377.338,506.16 C383.654,506.16 386.932,502.974 389.826,500.158 C390.061,499.93 390.294,499.704 390.528,499.48 C389.437,504.171 385.23,507.666 380.206,507.666 M377.338,503.669 C372.034,503.669 369.388,501.096 366.586,498.377 C363.692,495.561 360.411,492.375 354.095,492.375 C347.779,492.375 344.501,495.561 341.606,498.373 C338.804,501.096 336.159,503.669 330.852,503.669 C325.677,503.669 323.032,501.222 320.306,498.575 C326.856,498.518 332.978,496.736 338.235,493.644 C341.515,491.719 344.464,489.293 346.977,486.472 L380.206,486.472 C385.678,486.472 390.181,490.618 390.744,495.94 C389.786,496.725 388.922,497.564 388.09,498.373 C385.289,501.096 382.642,503.669 377.338,503.669 M284.376,503.669 C279.208,503.669 276.566,501.223 273.842,498.576 L294.918,498.576 C292.193,501.22 289.548,503.669 284.376,503.669 M237.893,503.669 C232.722,503.669 230.077,501.223 227.351,498.576 L248.446,498.576 C245.718,501.223 243.07,503.669 237.893,503.669 M191.415,503.669 C186.24,503.669 183.595,501.22 180.868,498.576 L201.958,498.576 C199.232,501.223 196.587,503.669 191.415,503.669 M144.929,503.669 C139.754,503.669 137.109,501.223 134.384,498.576 L155.474,498.576 C152.748,501.223 150.103,503.669 144.929,503.669 M98.452,503.669 C93.285,503.669 90.643,501.223 87.919,498.576 L108.995,498.576 C106.269,501.22 103.625,503.669 98.452,503.669 M51.97,503.669 C46.666,503.669 44.02,501.096 41.218,498.373 C38.324,495.561 35.046,492.375 28.73,492.375 C22.416,492.375 19.138,495.561 16.244,498.373 C13.442,501.096 10.796,503.669 5.492,503.669 C4.167,503.669 3.008,503.509 1.971,503.226 C0.73,501.49 -6.25277607e-13,499.365 -6.25277607e-13,497.068 C-6.25277607e-13,491.216 4.744,486.472 10.597,486.472 L50.54,486.472 C53.041,489.275 55.975,491.684 59.236,493.596 L59.236,486.472 L59.236,493.596 C61.043,494.662 62.95,495.574 64.941,496.316 C64.157,496.99 63.433,497.692 62.732,498.373 C59.928,501.096 57.279,503.669 51.97,503.669" id="Fill-172" fill="#2F6393"></path>
            <path d="M51.97,506.16 C45.655,506.16 42.376,502.974 39.482,500.162 C36.68,497.439 34.034,494.866 28.73,494.866 C23.426,494.866 20.782,497.439 17.98,500.158 C15.086,502.974 11.807,506.16 5.492,506.16 C5.374,506.16 5.258,506.159 5.143,506.157 C3.896,505.406 2.815,504.406 1.971,503.226 C3.008,503.509 4.167,503.669 5.492,503.669 C10.796,503.669 13.442,501.096 16.244,498.373 C19.138,495.561 22.416,492.375 28.73,492.375 C35.046,492.375 38.324,495.561 41.218,498.373 C44.02,501.096 46.666,503.669 51.97,503.669 C57.279,503.669 59.928,501.096 62.732,498.373 C63.433,497.692 64.157,496.99 64.941,496.316 C65.868,496.661 66.813,496.97 67.775,497.239 C66.591,498.101 65.541,499.121 64.469,500.162 C61.572,502.974 58.291,506.16 51.97,506.16" id="Fill-173" fill="#305A83"></path>
            <path d="M237.893,506.16 C231.578,506.16 228.299,502.974 225.405,500.162 C224.849,499.621 224.298,499.086 223.732,498.576 L227.351,498.576 C230.077,501.223 232.722,503.669 237.893,503.669 C243.07,503.669 245.718,501.223 248.446,498.576 L252.066,498.576 C251.5,499.086 250.949,499.621 250.392,500.162 C247.496,502.974 244.215,506.16 237.893,506.16 M191.415,506.16 C185.099,506.16 181.82,502.974 178.927,500.162 C178.37,499.621 177.82,499.086 177.253,498.576 L180.868,498.576 C183.595,501.22 186.24,503.669 191.415,503.669 C196.587,503.669 199.232,501.223 201.958,498.576 L205.574,498.576 C205.009,499.085 204.459,499.619 203.903,500.158 C201.009,502.974 197.73,506.16 191.415,506.16 M144.929,506.16 C138.613,506.16 135.332,502.974 132.438,500.158 C131.882,499.619 131.333,499.085 130.767,498.576 L134.384,498.576 C137.109,501.223 139.754,503.669 144.929,503.669 C150.103,503.669 152.748,501.223 155.474,498.576 L159.09,498.576 C158.525,499.085 157.975,499.619 157.42,500.158 C154.525,502.974 151.244,506.16 144.929,506.16 M98.452,506.16 C92.141,506.16 88.865,502.974 85.974,500.162 C85.418,499.621 84.868,499.086 84.302,498.576 L87.919,498.576 C90.643,501.223 93.285,503.669 98.452,503.669 C103.625,503.669 106.269,501.22 108.995,498.576 L112.608,498.576 C112.042,499.086 111.492,499.621 110.936,500.162 C108.044,502.974 104.766,506.16 98.452,506.16" id="Fill-174" fill="#305A83"></path>
            <path d="M377.338,506.16 C371.022,506.16 367.744,502.974 364.85,500.162 C362.048,497.439 359.402,494.866 354.095,494.866 C348.791,494.866 346.145,497.439 343.343,500.158 C340.449,502.974 337.168,506.16 330.852,506.16 C324.536,506.16 321.255,502.974 318.361,500.158 C317.806,499.619 317.256,499.085 316.691,498.576 L319.982,498.576 C320.09,498.576 320.198,498.576 320.306,498.575 C323.032,501.222 325.677,503.669 330.852,503.669 C336.159,503.669 338.804,501.096 341.606,498.373 C344.501,495.561 347.779,492.375 354.095,492.375 C360.411,492.375 363.692,495.561 366.586,498.377 C369.388,501.096 372.034,503.669 377.338,503.669 C382.642,503.669 385.289,501.096 388.09,498.373 C388.922,497.564 389.786,496.725 390.744,495.94 C390.784,496.31 390.804,496.687 390.804,497.068 C390.804,497.898 390.708,498.705 390.528,499.48 C390.294,499.704 390.061,499.93 389.826,500.158 C386.932,502.974 383.654,506.16 377.338,506.16 M284.376,506.16 C278.064,506.16 274.788,502.974 271.897,500.162 C271.341,499.621 270.791,499.086 270.225,498.576 L273.842,498.576 C276.566,501.223 279.208,503.669 284.376,503.669 C289.548,503.669 292.193,501.22 294.918,498.576 L298.531,498.576 C297.965,499.086 297.415,499.621 296.859,500.162 C293.968,502.974 290.689,506.16 284.376,506.16" id="Fill-175" fill="#305A83"></path>
            <path d="M356.126,187.277 L356.126,462.432 C356.126,475.73 348.945,487.358 338.235,493.644 L338.235,241.216 C338.235,241.216 346.455,208.649 346.455,187.277 C346.455,150.553 316.573,120.671 279.848,120.671 L117.671,120.671 C80.947,120.671 51.065,150.553 51.065,187.277 C51.065,207.683 58.56,238.314 59.236,241.022 L59.236,493.596 C48.55,487.334 41.394,475.73 41.394,462.432 L41.394,187.277 C41.394,145.138 75.531,111 117.671,111 L279.848,111 C321.988,111 356.126,145.138 356.126,187.277" id="Fill-176" fill="#009186"></path>
            <path d="M346.455,187.277 C346.455,208.649 338.235,241.216 338.235,241.216 L338.235,493.644 C332.892,496.787 326.654,498.576 319.982,498.576 L77.538,498.576 C70.865,498.576 64.604,496.763 59.236,493.596 L59.236,241.022 C58.56,238.314 51.065,207.683 51.065,187.277 C51.065,150.553 80.947,120.671 117.671,120.671 L279.848,120.671 C316.573,120.671 346.455,150.553 346.455,187.277" id="Fill-177" fill="#00A9A2"></path>
            <path d="M308.096,481.269 L89.423,481.269 C82.905,481.269 77.622,475.985 77.622,469.468 L77.622,438.109 C77.622,431.591 82.905,426.308 89.423,426.308 L308.096,426.308 C314.614,426.308 319.897,431.591 319.897,438.109 L319.897,469.468 C319.897,475.985 314.614,481.269 308.096,481.269" id="Fill-178" fill="#009E95"></path>
            <path d="M198.76,271.273 C139.841,271.273 88.2,242.952 59.236,204.955 C88.204,238.097 139.845,260.17 198.76,260.17 C257.626,260.17 309.268,238.121 338.232,205.002 C338.235,205.003 338.235,205.003 338.235,205.003 C309.272,242.973 257.63,271.273 198.76,271.273 M337.485,204.782 C335.903,204.322 334.334,203.866 332.747,203.428 C288.035,190.701 243.333,184.337 198.631,184.337 C153.995,184.337 109.358,190.684 64.724,203.379 C63.197,203.801 61.686,204.24 60.164,204.682 C64.063,203.536 67.957,202.439 71.856,201.39 C76.333,200.185 80.802,199.046 85.28,197.969 C89.928,196.851 94.585,195.799 99.233,194.819 C102.723,194.082 106.21,193.386 109.7,192.727 C110.222,192.628 110.754,192.529 111.277,192.432 C111.458,192.398 111.627,192.367 111.809,192.334 C114.516,191.835 117.228,191.358 119.935,190.906 C122.756,190.435 125.584,189.988 128.404,189.568 C131.344,189.13 134.281,188.72 137.221,188.336 C140.087,187.963 142.955,187.615 145.821,187.294 C148.693,186.972 151.568,186.676 154.44,186.407 C160.411,185.847 166.375,185.401 172.346,185.068 C175.042,184.917 177.746,184.79 180.442,184.686 C182.843,184.593 185.241,184.519 187.642,184.463 C188.096,184.452 188.546,184.443 189,184.433 C190.544,184.402 192.1,184.378 193.644,184.361 C195.307,184.344 196.963,184.335 198.626,184.335 C201.731,184.335 204.837,184.366 207.942,184.427 C222.586,184.716 237.231,185.689 251.877,187.343 C254.199,187.605 256.522,187.884 258.844,188.181 C261.16,188.477 263.471,188.789 265.787,189.119 C278.112,190.874 290.423,193.111 302.748,195.833 C314.325,198.389 325.907,201.373 337.485,204.782" id="Fill-179" fill="#009E95"></path>
            <path d="M77.622,437.324 L77.622,460.109 C77.622,466.627 82.905,471.911 89.423,471.911 L308.096,471.911 C314.614,471.911 319.897,466.627 319.897,460.109 L319.897,437.324 L77.622,437.324" id="Fill-180" fill="#F8C66A"></path>
            <path d="M319.897,428.751 C319.897,422.233 314.614,416.949 308.096,416.949 L89.423,416.949 C82.905,416.949 77.622,422.233 77.622,428.751 L77.622,437.324 L319.897,437.324 L319.897,428.751" id="Fill-181" fill="#F9CF81"></path>
            <path d="M198.76,407.812 C154.182,407.812 109.603,399.479 90.458,382.813 C83.484,376.742 81.75,362.334 82.302,346.706 C82.77,358.199 85.022,367.996 90.458,372.729 C109.603,389.395 154.182,397.728 198.76,397.728 C243.338,397.728 287.916,389.395 307.061,372.729 C312.496,367.997 314.749,358.198 315.217,346.707 C315.769,362.332 314.034,376.742 307.061,382.813 C287.916,399.479 243.338,407.812 198.76,407.812" id="Fill-182" fill="#009E95"></path>
            <path d="M307.061,372.729 C268.771,406.06 128.749,406.06 90.458,372.729 C76.568,360.637 83.462,315.462 87.815,293.477 C89.207,286.447 96.188,281.304 104.382,281.304 L293.136,281.304 C301.331,281.304 308.312,286.447 309.704,293.477 C314.057,315.462 320.951,360.637 307.061,372.729" id="Fill-183" fill="#F8C66A"></path>
            <path d="M313.415,315.92 C312.314,307.456 310.911,299.574 309.704,293.477 C308.312,286.447 301.331,281.304 293.136,281.304 L305.848,281.304 C312.814,281.304 318.633,286.561 319.388,293.485 C320.191,300.857 320.364,309.375 317.464,312.275 C316.211,313.528 314.86,314.743 313.415,315.92 M84.104,315.92 C82.659,314.743 81.308,313.528 80.055,312.275 C77.155,309.375 77.328,300.857 78.131,293.485 C78.886,286.561 84.706,281.304 91.671,281.304 L104.382,281.304 C96.188,281.304 89.207,286.447 87.815,293.477 C86.608,299.574 85.205,307.456 84.104,315.92" id="Fill-184" fill="#009E95"></path>
            <path d="M198.76,343.752 C152.816,343.752 106.872,334.474 84.104,315.92 C85.205,307.456 86.608,299.574 87.815,293.477 C89.207,286.447 96.188,281.304 104.382,281.304 L293.136,281.304 C301.331,281.304 308.312,286.447 309.704,293.477 C310.911,299.574 312.314,307.456 313.415,315.92 C290.647,334.474 244.703,343.752 198.76,343.752" id="Fill-185" fill="#D9B263"></path>
            <path d="M319.388,285.963 C318.633,279.038 312.814,273.781 305.848,273.781 L91.671,273.781 C84.706,273.781 78.886,279.038 78.131,285.963 C78.079,286.442 78.038,286.935 77.992,287.422 L319.527,287.422 C319.481,286.935 319.44,286.442 319.388,285.963" id="Fill-186" fill="#FCDB9C"></path>
            <path d="M77.992,287.422 C77.327,294.427 77.343,302.041 80.055,304.753 C122.024,346.722 275.496,346.722 317.464,304.753 C320.176,302.041 320.192,294.427 319.527,287.422 L77.992,287.422" id="Fill-187" fill="#F9CF81"></path>
            <path d="M338.235,204.999 C309.272,238.121 257.63,260.17 198.76,260.17 C139.841,260.17 88.2,238.097 59.236,204.95 C61.073,204.419 62.887,203.887 64.724,203.379 C94.462,233.237 143.395,252.724 198.76,252.724 C254.076,252.724 303.009,233.262 332.747,203.428 C334.584,203.935 336.398,204.467 338.235,204.999" id="Fill-188" fill="#005A55"></path>
            <path d="M332.747,203.428 C303.009,233.262 254.076,252.724 198.76,252.724 C143.395,252.724 94.462,233.237 64.724,203.379 C154.057,177.97 243.39,177.993 332.747,203.428" id="Fill-189" fill="#009186"></path>
            <polygon id="Fill-190" fill="#B09050" points="93.957 429.523 303.563 429.523 303.563 426.942 93.957 426.942"></polygon>
            <path d="M364.428,349.601 L356.129,349.601 L356.129,456.034 C356.129,456.034 377.34,463.718 385.024,456.034 C400.865,440.193 379.874,375.577 372.844,355.548 C371.589,351.973 368.217,349.601 364.428,349.601" id="Fill-191" fill="#00A9A2"></path>
            <path d="M33.092,349.601 L41.391,349.601 L41.391,456.034 C41.391,456.034 20.179,463.718 12.496,456.034 C-3.346,440.193 17.645,375.577 24.676,355.548 C25.931,351.973 29.302,349.601 33.092,349.601" id="Fill-192" fill="#00A9A2"></path>
            <path d="M338.235,241.216 L338.235,204.999 C245.203,177.462 152.22,177.437 59.236,204.95 L59.236,241.022 C58.56,238.314 51.065,207.683 51.065,187.277 C51.065,150.553 80.947,120.671 117.671,120.671 L279.848,120.671 C316.573,120.671 346.455,150.553 346.455,187.277 C346.455,208.649 338.235,241.216 338.235,241.216" id="Fill-193" fill="#005A55"></path>
            <path d="M293.434,438.694 C293.434,441.862 290.866,444.431 287.698,444.431 C284.53,444.431 281.962,441.862 281.962,438.694 C281.962,436.972 283.658,432.941 285.206,429.621 C286.195,427.499 289.201,427.499 290.19,429.621 C291.737,432.941 293.434,436.972 293.434,438.694" id="Fill-194" fill="#B09050"></path>
            <path d="M374.118,459.449 L374.118,459.449 C378.399,459.449 382.462,458.596 385.024,456.034 C382.462,458.596 378.399,459.449 374.118,459.449" id="Fill-195" fill="#395C87"></path>
            <path d="M374.118,459.449 C365.607,459.449 356.239,456.074 356.13,456.035 C356.129,456.034 356.129,456.034 356.129,456.034 L356.129,349.601 L363.16,349.601 C360.34,362.405 359.585,376.875 361.407,391.982 C364.468,417.344 374.139,439.255 386.98,453.478 C386.396,454.419 385.762,455.296 385.024,456.034 C382.462,458.596 378.399,459.449 374.118,459.449" id="Fill-196" fill="#009E95"></path>
            <path d="M23.402,459.449 C20.214,459.449 17.148,458.976 14.731,457.677 C13.949,457.257 13.236,456.75 12.608,456.144 C12.57,456.108 12.533,456.071 12.496,456.034 C11.758,455.296 11.124,454.419 10.54,453.478 C23.381,439.255 33.052,417.344 36.113,391.982 C37.935,376.875 37.179,362.405 34.36,349.601 L41.391,349.601 L41.391,456.034 C41.391,456.034 41.24,456.089 40.96,456.184 C39.022,456.843 30.881,459.449 23.402,459.449" id="Fill-197" fill="#009E95"></path>
            <path d="M211.501,326.365 L211.501,346.988 L186.019,346.988 L186.019,326.365 C186.019,324.335 187.687,322.667 189.742,322.667 L207.778,322.667 C209.833,322.667 211.501,324.335 211.501,326.365" id="Fill-198" fill="#E15F64"></path>
            <path d="M186.019,352.211 L211.501,352.211 L211.501,379.555 C211.501,381.174 210.776,382.673 209.519,383.689 L202.072,389.66 C200.138,391.207 197.381,391.207 195.472,389.66 L188.001,383.689 C186.744,382.673 186.019,381.174 186.019,379.555 L186.019,352.211" id="Fill-199" fill="#E15F64"></path>
            <polyline id="Fill-200" fill="#E7F1EE" points="211.501 346.988 211.501 352.211 213.29 352.211 213.29 370.174 184.23 370.174 184.23 352.211 186.019 352.211 186.019 346.988 179.032 346.988 179.032 375.372 218.488 375.372 218.488 346.988 211.501 346.988"></polyline>
            <polygon id="Fill-201" fill="#E15F64" points="186.019 352.211 211.501 352.211 211.501 346.988 186.019 346.988"></polygon>
            <g id="Group-353" transform="translate(33.260000, 0.000000)">
                <mask id="mask-2" fill="white">
                    <use xlink:href="#path-1"></use>
                </mask>
                <g id="Clip-203"></g>
                <polyline id="Fill-202" fill="#F8C66A" mask="url(#mask-2)" points="257.567 164.288 232.701 160.237 257.328 9.027 282.195 13.078 257.567 164.288"></polyline>
                <polyline id="Fill-204" fill="#DCA042" mask="url(#mask-2)" points="265.171 18.617 256.01 17.125 256.302 15.331 265.463 16.823 265.171 18.617"></polyline>
                <polyline id="Fill-205" fill="#DCA042" mask="url(#mask-2)" points="259.417 25.071 254.836 24.325 255.129 22.532 259.709 23.278 259.417 25.071"></polyline>
                <polyline id="Fill-206" fill="#DCA042" mask="url(#mask-2)" points="262.826 33.018 253.664 31.525 253.956 29.732 263.118 31.225 262.826 33.018"></polyline>
                <polyline id="Fill-207" fill="#DCA042" mask="url(#mask-2)" points="257.072 39.472 252.491 38.726 252.783 36.933 257.364 37.679 257.072 39.472"></polyline>
                <polyline id="Fill-208" fill="#DCA042" mask="url(#mask-2)" points="260.48 47.419 251.318 45.927 251.61 44.133 260.772 45.626 260.48 47.419"></polyline>
                <polyline id="Fill-209" fill="#DCA042" mask="url(#mask-2)" points="254.726 53.873 250.145 53.127 250.438 51.334 255.018 52.08 254.726 53.873"></polyline>
                <polyline id="Fill-210" fill="#DCA042" mask="url(#mask-2)" points="258.134 61.82 248.973 60.328 249.265 58.534 258.427 60.026 258.134 61.82"></polyline>
                <polyline id="Fill-211" fill="#DCA042" mask="url(#mask-2)" points="252.381 68.273 247.8 67.527 248.092 65.734 252.673 66.481 252.381 68.273"></polyline>
                <polyline id="Fill-212" fill="#DCA042" mask="url(#mask-2)" points="255.789 76.221 246.627 74.729 246.919 72.935 256.081 74.427 255.789 76.221"></polyline>
                <polyline id="Fill-213" fill="#DCA042" mask="url(#mask-2)" points="250.035 82.675 245.454 81.929 245.747 80.136 250.327 80.882 250.035 82.675"></polyline>
                <polyline id="Fill-214" fill="#DCA042" mask="url(#mask-2)" points="253.443 90.621 244.282 89.129 244.574 87.336 253.735 88.828 253.443 90.621"></polyline>
                <polyline id="Fill-215" fill="#DCA042" mask="url(#mask-2)" points="247.69 97.075 243.109 96.33 243.401 94.537 247.982 95.283 247.69 97.075"></polyline>
                <polyline id="Fill-216" fill="#DCA042" mask="url(#mask-2)" points="251.098 105.023 241.936 103.53 242.228 101.737 251.39 103.229 251.098 105.023"></polyline>
                <polyline id="Fill-217" fill="#DCA042" mask="url(#mask-2)" points="245.344 111.478 240.763 110.732 241.056 108.938 245.636 109.684 245.344 111.478"></polyline>
                <polyline id="Fill-218" fill="#DCA042" mask="url(#mask-2)" points="248.752 119.423 239.591 117.931 239.883 116.138 249.044 117.63 248.752 119.423"></polyline>
                <polyline id="Fill-219" fill="#DCA042" mask="url(#mask-2)" points="242.999 125.878 238.418 125.132 238.71 123.339 243.291 124.085 242.999 125.878"></polyline>
                <polyline id="Fill-220" fill="#DCA042" mask="url(#mask-2)" points="246.407 133.824 237.245 132.332 237.538 130.539 246.699 132.031 246.407 133.824"></polyline>
                <polyline id="Fill-221" fill="#DCA042" mask="url(#mask-2)" points="240.653 140.278 236.073 139.532 236.365 137.739 240.945 138.485 240.653 140.278"></polyline>
                <polyline id="Fill-222" fill="#DCA042" mask="url(#mask-2)" points="244.061 148.226 234.9 146.733 235.192 144.94 244.353 146.433 244.061 148.226"></polyline>
                <polyline id="Fill-223" fill="#DCA042" mask="url(#mask-2)" points="238.307 154.68 233.727 153.934 234.019 152.141 238.6 152.887 238.307 154.68"></polyline>
                <polyline id="Fill-224" fill="#DCA042" mask="url(#mask-2)" points="257.567 164.288 248.478 162.808 273.106 11.597 282.195 13.078 257.567 164.288"></polyline>
                <polyline id="Fill-225" fill="#ACC7CB" mask="url(#mask-2)" points="19.324 14.951 122.412 66.78 119.704 72.166 23.242 23.668 19.324 14.951"></polyline>
                <polyline id="Fill-226" fill="#CBE1E3" mask="url(#mask-2)" points="117.786 64.456 116.041 67.928 117.194 68.507 118.939 65.036"></polyline>
                <polyline id="Fill-227" fill="#CBE1E3" mask="url(#mask-2)" points="111.232 61.16 109.486 64.632 110.639 65.212 112.384 61.74"></polyline>
                <polyline id="Fill-228" fill="#CBE1E3" mask="url(#mask-2)" points="104.677 57.865 102.932 61.337 104.085 61.916 105.83 58.445"></polyline>
                <polyline id="Fill-229" fill="#CBE1E3" mask="url(#mask-2)" points="98.122 54.57 96.377 58.041 97.53 58.621 99.275 55.149"></polyline>
                <polyline id="Fill-230" fill="#CBE1E3" mask="url(#mask-2)" points="91.568 51.274 89.822 54.746 90.975 55.325 92.721 51.854"></polyline>
                <polyline id="Fill-231" fill="#CBE1E3" mask="url(#mask-2)" points="85.013 47.979 83.268 51.45 84.42 52.03 86.166 48.558"></polyline>
                <polyline id="Fill-232" fill="#CBE1E3" mask="url(#mask-2)" points="78.459 44.683 76.713 48.155 77.866 48.735 79.611 45.263"></polyline>
                <polyline id="Fill-233" fill="#CBE1E3" mask="url(#mask-2)" points="71.904 41.388 70.158 44.86 71.311 45.439 73.057 41.968"></polyline>
                <polyline id="Fill-234" fill="#CBE1E3" mask="url(#mask-2)" points="65.349 38.093 63.604 41.564 64.756 42.143 66.502 38.672"></polyline>
                <polyline id="Fill-235" fill="#CBE1E3" mask="url(#mask-2)" points="58.795 34.797 57.049 38.268 58.202 38.848 59.947 35.377"></polyline>
                <polyline id="Fill-236" fill="#CBE1E3" mask="url(#mask-2)" points="52.24 31.501 50.494 34.973 51.647 35.553 53.393 32.081"></polyline>
                <polyline id="Fill-237" fill="#CBE1E3" mask="url(#mask-2)" points="45.685 28.206 43.94 31.678 45.092 32.257 46.838 28.785"></polyline>
                <polyline id="Fill-238" fill="#CBE1E3" mask="url(#mask-2)" points="39.13 24.91 37.385 28.382 38.538 28.962 40.283 25.49"></polyline>
                <polyline id="Fill-239" fill="#CBE1E3" mask="url(#mask-2)" points="32.576 21.615 30.831 25.087 31.984 25.666 33.729 22.195"></polyline>
                <polyline id="Fill-240" fill="#CBE1E3" mask="url(#mask-2)" points="26.021 18.32 24.276 21.791 25.429 22.371 27.174 18.899"></polyline>
                <path d="M81.209,109.181 L56.063,53.306 L98.559,74.671 L81.209,109.181 Z M80.323,150.497 L119.704,72.166 L23.252,23.673 L80.323,150.497 L80.323,150.497 Z" id="Fill-241" fill="#90ABB4" mask="url(#mask-2)"></path>
                <path d="M82.013,66.376 C80.093,66.376 78.536,64.819 78.536,62.899 C78.536,60.98 80.093,59.423 82.013,59.423 C83.932,59.423 85.488,60.98 85.488,62.899 C85.488,64.819 83.932,66.376 82.013,66.376 L82.013,66.376 Z M82.013,82.33 C80.093,82.33 78.536,80.773 78.536,78.853 C78.536,76.934 80.093,75.377 82.013,75.377 C83.932,75.377 85.488,76.934 85.488,78.853 C85.488,80.773 83.932,82.33 82.013,82.33 L82.013,82.33 Z M82.013,98.283 C80.093,98.283 78.536,96.728 78.536,94.808 C78.536,92.888 80.093,91.331 82.013,91.331 C83.932,91.331 85.488,92.888 85.488,94.808 C85.488,96.728 83.932,98.283 82.013,98.283 L82.013,98.283 Z M82.013,114.237 C80.093,114.237 78.536,112.681 78.536,110.761 C78.536,108.842 80.093,107.285 82.013,107.285 C83.932,107.285 85.488,108.842 85.488,110.761 C85.488,112.681 83.932,114.237 82.013,114.237 L82.013,114.237 Z M82.013,130.191 C80.093,130.191 78.536,128.635 78.536,126.715 C78.536,124.795 80.093,123.239 82.013,123.239 C83.932,123.239 85.488,124.795 85.488,126.715 C85.488,128.635 83.932,130.191 82.013,130.191 L82.013,130.191 Z M82.013,146.145 C80.093,146.145 78.536,144.589 78.536,142.669 C78.536,140.749 80.093,139.193 82.013,139.193 C83.932,139.193 85.488,140.749 85.488,142.669 C85.488,144.589 83.932,146.145 82.013,146.145 L82.013,146.145 Z M82.013,162.099 C80.093,162.099 78.536,160.542 78.536,158.623 C78.536,156.703 80.093,155.146 82.013,155.146 C83.932,155.146 85.488,156.703 85.488,158.623 C85.488,160.542 83.932,162.099 82.013,162.099 L82.013,162.099 Z M82.013,178.053 C80.093,178.053 78.536,176.496 78.536,174.576 C78.536,172.657 80.093,171.101 82.013,171.101 C83.932,171.101 85.488,172.657 85.488,174.576 C85.488,176.496 83.932,178.053 82.013,178.053 L82.013,178.053 Z M82.013,194.006 C80.093,194.006 78.536,192.45 78.536,190.53 C78.536,188.61 80.093,187.055 82.013,187.055 C83.932,187.055 85.488,188.61 85.488,190.53 C85.488,192.45 83.932,194.006 82.013,194.006 L82.013,194.006 Z M82.013,209.96 C80.093,209.96 78.536,208.403 78.536,206.484 C78.536,204.565 80.093,203.008 82.013,203.008 C83.932,203.008 85.488,204.565 85.488,206.484 C85.488,208.403 83.932,209.96 82.013,209.96 L82.013,209.96 Z M82.013,225.914 C80.093,225.914 78.536,224.357 78.536,222.438 C78.536,220.519 80.093,218.962 82.013,218.962 C83.932,218.962 85.488,220.519 85.488,222.438 C85.488,224.357 83.932,225.914 82.013,225.914 L82.013,225.914 Z M82.013,43.47 C83.932,43.47 85.488,45.026 85.488,46.946 C85.488,48.866 83.932,50.422 82.013,50.422 C80.093,50.422 78.536,48.866 78.536,46.946 C78.536,45.026 80.093,43.47 82.013,43.47 L82.013,43.47 Z M76.44,232.813 L95.144,232.813 L95.144,37.759 L76.44,37.759 L76.44,232.813 Z" id="Fill-242" fill="#D3555C" mask="url(#mask-2)"></path>
                <path d="M221.082,37.759 L95.144,37.759 L95.144,232.813 L221.082,232.813 C225.875,232.813 229.761,228.927 229.761,224.133 L229.761,46.439 C229.761,41.645 225.875,37.759 221.082,37.759" id="Fill-243" fill="#E15F64" mask="url(#mask-2)"></path>
                <path d="M70.869,48.847 L82.013,48.847 C83.063,48.847 83.914,47.996 83.914,46.946 C83.914,45.896 83.063,45.044 82.013,45.044 L70.869,45.044 C69.818,45.044 68.967,45.896 68.967,46.946 C68.967,47.996 69.818,48.847 70.869,48.847" id="Fill-244" fill="#E15F64" mask="url(#mask-2)"></path>
                <path d="M70.869,64.802 L82.013,64.802 C83.063,64.802 83.914,63.95 83.914,62.9 C83.914,61.85 83.063,60.998 82.013,60.998 L70.869,60.998 C69.818,60.998 68.967,61.85 68.967,62.9 C68.967,63.95 69.818,64.802 70.869,64.802" id="Fill-245" fill="#E15F64" mask="url(#mask-2)"></path>
                <path d="M70.869,80.755 L82.013,80.755 C83.063,80.755 83.914,79.904 83.914,78.854 C83.914,77.803 83.063,76.952 82.013,76.952 L70.869,76.952 C69.818,76.952 68.967,77.803 68.967,78.854 C68.967,79.904 69.818,80.755 70.869,80.755" id="Fill-246" fill="#E15F64" mask="url(#mask-2)"></path>
                <path d="M70.869,96.709 L82.013,96.709 C83.063,96.709 83.914,95.858 83.914,94.808 C83.914,93.757 83.063,92.906 82.013,92.906 L70.869,92.906 C69.818,92.906 68.967,93.757 68.967,94.808 C68.967,95.858 69.818,96.709 70.869,96.709" id="Fill-247" fill="#E15F64" mask="url(#mask-2)"></path>
                <path d="M70.869,112.663 L82.013,112.663 C83.063,112.663 83.914,111.812 83.914,110.762 C83.914,109.711 83.063,108.86 82.013,108.86 L70.869,108.86 C69.818,108.86 68.967,109.711 68.967,110.762 C68.967,111.812 69.818,112.663 70.869,112.663" id="Fill-248" fill="#E15F64" mask="url(#mask-2)"></path>
                <path d="M70.869,128.616 L82.013,128.616 C83.063,128.616 83.914,127.765 83.914,126.715 C83.914,125.665 83.063,124.813 82.013,124.813 L70.869,124.813 C69.818,124.813 68.967,125.665 68.967,126.715 C68.967,127.765 69.818,128.616 70.869,128.616" id="Fill-249" fill="#E15F64" mask="url(#mask-2)"></path>
                <path d="M70.869,144.571 L82.013,144.571 C83.063,144.571 83.914,143.719 83.914,142.669 C83.914,141.619 83.063,140.767 82.013,140.767 L70.869,140.767 C69.818,140.767 68.967,141.619 68.967,142.669 C68.967,143.719 69.818,144.571 70.869,144.571" id="Fill-250" fill="#E15F64" mask="url(#mask-2)"></path>
                <path d="M70.869,160.525 L82.013,160.525 C83.063,160.525 83.914,159.673 83.914,158.623 C83.914,157.573 83.063,156.721 82.013,156.721 L70.869,156.721 C69.818,156.721 68.967,157.573 68.967,158.623 C68.967,159.673 69.818,160.525 70.869,160.525" id="Fill-251" fill="#E15F64" mask="url(#mask-2)"></path>
                <path d="M70.869,176.478 L82.013,176.478 C83.063,176.478 83.914,175.626 83.914,174.576 C83.914,173.526 83.063,172.675 82.013,172.675 L70.869,172.675 C69.818,172.675 68.967,173.526 68.967,174.576 C68.967,175.626 69.818,176.478 70.869,176.478" id="Fill-252" fill="#E15F64" mask="url(#mask-2)"></path>
                <path d="M70.868,192.432 L82.013,192.432 C83.063,192.432 83.914,191.581 83.914,190.53 C83.914,189.48 83.063,188.629 82.013,188.629 L70.868,188.629 C69.818,188.629 68.967,189.48 68.967,190.53 C68.967,191.581 69.818,192.432 70.868,192.432" id="Fill-253" fill="#E15F64" mask="url(#mask-2)"></path>
                <path d="M70.869,208.386 L82.013,208.386 C83.063,208.386 83.914,207.535 83.914,206.484 C83.914,205.434 83.063,204.583 82.013,204.583 L70.869,204.583 C69.818,204.583 68.967,205.434 68.967,206.484 C68.967,207.535 69.818,208.386 70.869,208.386" id="Fill-254" fill="#E15F64" mask="url(#mask-2)"></path>
                <path d="M70.869,224.34 L82.013,224.34 C83.063,224.34 83.914,223.489 83.914,222.439 C83.914,221.388 83.063,220.537 82.013,220.537 L70.869,220.537 C69.818,220.537 68.967,221.388 68.967,222.439 C68.967,223.489 69.818,224.34 70.869,224.34" id="Fill-255" fill="#E15F64" mask="url(#mask-2)"></path>
                <path d="M205.887,112.679 L205.887,111.728 L119.018,111.728 C117.253,111.727 115.664,111.015 114.507,109.859 C113.35,108.701 112.638,107.112 112.638,105.347 L112.638,66.755 C112.638,64.99 113.35,63.401 114.507,62.243 C115.664,61.087 117.253,60.375 119.018,60.374 L205.887,60.374 C207.652,60.375 209.241,61.087 210.399,62.243 C211.555,63.401 212.267,64.99 212.268,66.755 L212.268,105.347 C212.267,107.112 211.555,108.701 210.399,109.859 C209.241,111.015 207.652,111.727 205.887,111.728 L205.887,113.63 C210.461,113.629 214.169,109.921 214.169,105.347 L214.169,66.755 C214.169,62.181 210.461,58.473 205.887,58.473 L119.018,58.473 C114.444,58.473 110.736,62.181 110.736,66.755 L110.736,105.347 C110.736,109.921 114.443,113.629 119.018,113.63 L205.887,113.63 L205.887,112.679" id="Fill-256" fill="#E98A93" mask="url(#mask-2)"></path>
                <polygon id="Fill-257" fill="#E98A93" mask="url(#mask-2)" points="121.474 74.303 203.431 74.303 203.431 72.402 121.474 72.402"></polygon>
                <polygon id="Fill-258" fill="#E98A93" mask="url(#mask-2)" points="121.474 87.002 203.431 87.002 203.431 85.1 121.474 85.1"></polygon>
                <polygon id="Fill-259" fill="#E98A93" mask="url(#mask-2)" points="121.474 99.7 203.431 99.7 203.431 97.798 121.474 97.798"></polygon>
                <path d="M164.732,101.136 C162.982,100.884 161.768,99.261 162.02,97.512 C162.271,95.762 163.894,94.547 165.644,94.799 C167.393,95.051 168.608,96.673 168.356,98.423 C168.104,100.173 166.482,101.388 164.732,101.136 M162.64,115.677 C160.89,115.425 159.676,113.803 159.928,112.053 C160.18,110.303 161.802,109.089 163.552,109.34 C165.301,109.592 166.515,111.215 166.264,112.965 C166.012,114.714 164.389,115.929 162.64,115.677 M160.548,130.218 C158.798,129.966 157.584,128.344 157.835,126.594 C158.087,124.844 159.71,123.63 161.459,123.882 C163.209,124.133 164.424,125.756 164.172,127.505 C163.92,129.255 162.297,130.47 160.548,130.218 M158.456,144.759 C156.706,144.507 155.492,142.885 155.743,141.135 C155.995,139.385 157.618,138.171 159.367,138.423 C161.117,138.674 162.332,140.297 162.079,142.047 C161.827,143.796 160.206,145.011 158.456,144.759 M156.363,159.3 C154.614,159.048 153.399,157.426 153.651,155.676 C153.903,153.926 155.525,152.712 157.275,152.964 C159.025,153.216 160.239,154.838 159.987,156.588 C159.736,158.337 158.113,159.552 156.363,159.3 M154.271,173.841 C152.521,173.589 151.307,171.967 151.559,170.217 C151.81,168.468 153.433,167.253 155.183,167.505 C156.932,167.757 158.147,169.379 157.895,171.129 C157.643,172.879 156.021,174.093 154.271,173.841 M152.179,188.382 C150.429,188.131 149.215,186.508 149.467,184.758 C149.719,183.009 151.341,181.794 153.091,182.046 C154.84,182.298 156.055,183.92 155.803,185.67 C155.551,187.42 153.929,188.634 152.179,188.382 M150.087,202.923 C148.337,202.672 147.123,201.049 147.374,199.3 C147.626,197.55 149.249,196.335 150.998,196.587 C152.748,196.839 153.962,198.461 153.711,200.211 C153.459,201.961 151.836,203.175 150.087,202.923 M147.994,217.465 C146.245,217.213 145.031,215.59 145.282,213.841 C145.534,212.091 147.156,210.876 148.906,211.128 C150.656,211.38 151.87,213.002 151.618,214.752 C151.367,216.502 149.744,217.716 147.994,217.465 M145.902,232.006 C144.153,231.754 142.938,230.131 143.19,228.382 C143.442,226.632 145.064,225.417 146.814,225.669 C148.564,225.921 149.778,227.544 149.526,229.293 C149.274,231.043 147.652,232.257 145.902,232.006 M143.81,246.547 C142.06,246.295 140.846,244.673 141.098,242.923 C141.35,241.173 142.972,239.958 144.722,240.21 C146.472,240.462 147.686,242.085 147.434,243.834 C147.182,245.584 145.56,246.799 143.81,246.547 M167.736,80.258 C169.486,80.51 170.7,82.132 170.448,83.882 C170.197,85.632 168.574,86.846 166.824,86.594 C165.075,86.343 163.86,84.72 164.112,82.97 C164.364,81.221 165.986,80.006 167.736,80.258 M163.406,74.322 L137.827,252.103 L154.875,254.557 L180.454,76.775 L163.406,74.322" id="Fill-260" fill="#63848E" mask="url(#mask-2)"></path>
                <path d="M295.24,93.291 L180.454,76.775 L154.875,254.557 L269.661,271.072 C274.029,271.7 278.08,268.668 278.709,264.3 L302.012,102.34 C302.641,97.971 299.609,93.919 295.24,93.291" id="Fill-261" fill="#90ABB4" mask="url(#mask-2)"></path>
                <path d="M271.605,159.305 L271.741,158.363 L192.565,146.972 C189.674,146.558 187.589,144.073 187.589,141.238 C187.589,140.963 187.608,140.685 187.649,140.404 L192.71,105.23 C193.124,102.34 195.609,100.255 198.443,100.255 C198.718,100.255 198.996,100.275 199.277,100.315 L278.454,111.707 C281.344,112.121 283.429,114.606 283.429,117.44 C283.429,117.715 283.41,117.994 283.369,118.275 L278.308,153.449 C277.894,156.339 275.409,158.424 272.576,158.424 C272.301,158.424 272.022,158.404 271.741,158.363 L271.605,159.305 L271.47,160.246 C271.841,160.299 272.21,160.325 272.576,160.325 C276.347,160.325 279.636,157.558 280.191,153.72 L285.252,118.546 C285.305,118.175 285.331,117.806 285.331,117.44 C285.331,113.668 282.563,110.379 278.725,109.825 L199.548,98.433 C199.177,98.379 198.808,98.353 198.443,98.353 C194.671,98.354 191.382,101.121 190.828,104.959 L185.767,140.133 C185.713,140.504 185.687,140.873 185.687,141.238 C185.688,145.011 188.455,148.3 192.294,148.854 L271.47,160.246 L271.605,159.305" id="Fill-262" fill="#CBE1E3" mask="url(#mask-2)"></path>
                <path d="M156.852,83.847 L167.009,85.309 C168.049,85.458 169.013,84.737 169.162,83.697 C169.312,82.658 168.59,81.694 167.551,81.544 L157.394,80.083 C156.354,79.933 155.39,80.655 155.241,81.694 C155.091,82.734 155.813,83.698 156.852,83.847" id="Fill-263" fill="#CBE1E3" mask="url(#mask-2)"></path>
                <path d="M154.76,98.388 L164.917,99.85 C165.956,100 166.92,99.278 167.07,98.239 C167.22,97.199 166.498,96.235 165.459,96.086 L155.302,94.624 C154.262,94.474 153.298,95.195 153.148,96.235 C152.999,97.275 153.72,98.239 154.76,98.388" id="Fill-264" fill="#CBE1E3" mask="url(#mask-2)"></path>
                <path d="M152.667,112.929 L162.825,114.391 C163.864,114.541 164.828,113.819 164.978,112.78 C165.127,111.74 164.406,110.776 163.366,110.627 L153.209,109.165 C152.17,109.015 151.206,109.736 151.056,110.776 C150.906,111.816 151.628,112.78 152.667,112.929" id="Fill-265" fill="#CBE1E3" mask="url(#mask-2)"></path>
                <path d="M150.576,127.47 L160.733,128.932 C161.772,129.082 162.736,128.36 162.886,127.321 C163.036,126.281 162.314,125.317 161.275,125.168 L151.117,123.706 C150.078,123.556 149.114,124.277 148.964,125.317 C148.815,126.357 149.536,127.321 150.576,127.47" id="Fill-266" fill="#CBE1E3" mask="url(#mask-2)"></path>
                <path d="M148.483,142.011 L158.641,143.473 C159.68,143.623 160.644,142.901 160.794,141.862 C160.943,140.822 160.222,139.858 159.182,139.709 L149.025,138.247 C147.986,138.097 147.022,138.818 146.872,139.858 C146.722,140.898 147.444,141.862 148.483,142.011" id="Fill-267" fill="#CBE1E3" mask="url(#mask-2)"></path>
                <path d="M146.391,156.552 L156.548,158.014 C157.588,158.164 158.552,157.442 158.701,156.403 C158.851,155.363 158.13,154.399 157.09,154.25 L146.933,152.788 C145.893,152.638 144.929,153.36 144.78,154.399 C144.63,155.439 145.352,156.403 146.391,156.552" id="Fill-268" fill="#CBE1E3" mask="url(#mask-2)"></path>
                <path d="M144.299,171.094 L154.456,172.555 C155.496,172.705 156.46,171.983 156.609,170.944 C156.759,169.904 156.037,168.94 154.998,168.791 L144.84,167.33 C143.801,167.18 142.837,167.902 142.687,168.941 C142.538,169.981 143.259,170.945 144.299,171.094" id="Fill-269" fill="#CBE1E3" mask="url(#mask-2)"></path>
                <path d="M142.207,185.635 L152.364,187.096 C153.403,187.246 154.367,186.524 154.517,185.485 C154.666,184.445 153.945,183.481 152.905,183.332 L142.749,181.871 C141.709,181.721 140.745,182.443 140.596,183.482 C140.446,184.522 141.168,185.486 142.207,185.635" id="Fill-270" fill="#CBE1E3" mask="url(#mask-2)"></path>
                <path d="M140.115,200.176 L150.272,201.637 C151.311,201.787 152.275,201.065 152.425,200.026 C152.574,198.986 151.853,198.022 150.813,197.873 L140.656,196.412 C139.617,196.262 138.653,196.984 138.503,198.023 C138.354,199.063 139.075,200.027 140.115,200.176" id="Fill-271" fill="#CBE1E3" mask="url(#mask-2)"></path>
                <path d="M138.023,214.717 L148.18,216.178 C149.219,216.328 150.183,215.606 150.333,214.567 C150.482,213.527 149.761,212.563 148.721,212.414 L138.564,210.953 C137.525,210.803 136.561,211.525 136.411,212.564 C136.262,213.604 136.983,214.568 138.023,214.717" id="Fill-272" fill="#CBE1E3" mask="url(#mask-2)"></path>
                <path d="M135.93,229.258 L146.088,230.719 C147.127,230.869 148.091,230.147 148.241,229.108 C148.39,228.068 147.669,227.104 146.629,226.955 L136.472,225.494 C135.432,225.344 134.468,226.066 134.319,227.105 C134.169,228.145 134.891,229.109 135.93,229.258" id="Fill-273" fill="#CBE1E3" mask="url(#mask-2)"></path>
                <path d="M133.838,243.799 L143.995,245.261 C145.035,245.411 145.999,244.689 146.148,243.65 C146.298,242.61 145.576,241.646 144.537,241.497 L134.38,240.035 C133.34,239.885 132.376,240.607 132.227,241.646 C132.077,242.686 132.798,243.65 133.838,243.799" id="Fill-274" fill="#CBE1E3" mask="url(#mask-2)"></path>
                <polyline id="Fill-275" fill="#CBE1E3" mask="url(#mask-2)" points="199.689 113.333 274.389 124.081 274.66 122.199 199.96 111.451 199.689 113.333"></polyline>
                <polyline id="Fill-276" fill="#CBE1E3" mask="url(#mask-2)" points="198.024 124.907 272.723 135.654 272.994 133.772 198.295 123.025 198.024 124.907"></polyline>
                <polyline id="Fill-277" fill="#CBE1E3" mask="url(#mask-2)" points="196.359 136.481 271.058 147.228 271.329 145.346 196.63 134.599 196.359 136.481"></polyline>
                <polyline id="Fill-278" fill="#284F91" mask="url(#mask-2)" points="216.395 229.453 213.673 209.553 227.303 212.587 216.395 229.453"></polyline>
                <polyline id="Fill-279" fill="#4B68A3" mask="url(#mask-2)" points="215.462 222.626 216.395 229.453 220.138 223.667 215.462 222.626"></polyline>
                <polyline id="Fill-280" fill="#284F91" mask="url(#mask-2)" points="254.521 74.933 247.42 73.352 244.771 85.252 251.871 86.833 254.521 74.933"></polyline>
                <path d="M226.14,136.643 C225.322,136.461 224.806,135.65 224.988,134.831 L234.952,90.075 L246.717,82.595 C247.425,82.145 248.363,82.353 248.813,83.062 C249.263,83.77 249.055,84.708 248.346,85.158 L237.643,91.963 L227.953,135.491 C227.771,136.31 226.959,136.826 226.14,136.643" id="Fill-281" fill="#4B68A3" mask="url(#mask-2)"></path>
                <path d="M255.335,86.668 C255.753,84.789 254.569,82.926 252.689,82.507 L245.866,80.988 C243.986,80.57 242.123,81.754 241.705,83.634 L239.056,95.532 L252.686,98.566 L255.335,86.668" id="Fill-282" fill="#4B68A3" mask="url(#mask-2)"></path>
                <polyline id="Fill-283" fill="#284F91" mask="url(#mask-2)" points="239.056 95.532 213.673 209.553 227.303 212.587 252.686 98.566 239.056 95.532"></polyline>
                <path d="M234.63,179.672 L234.63,179.672 L239.964,155.713 L234.63,179.672 M240.378,153.851 L240.378,153.851 L242.759,143.157 L240.378,153.851 M243.174,141.295 L243.174,141.295 L245.308,131.71 L243.174,141.295 M245.722,129.848 L245.722,129.848 L247.856,120.263 L245.722,129.848 M248.27,118.402 L248.27,118.402 L250.651,107.707 L248.27,118.402 M251.066,105.845 L251.066,105.845 L252.686,98.566 L245.871,97.049 L252.686,98.566 L255.145,87.522 L251.066,105.845" id="Fill-284" fill="#87A3AB" mask="url(#mask-2)"></path>
                <path d="M239.964,155.713 L239.964,155.713 L240.378,153.851 L239.964,155.713 M250.651,107.707 L250.651,107.707 L251.066,105.845 L250.651,107.707" id="Fill-285" fill="#BDD2D2" mask="url(#mask-2)"></path>
                <polyline id="Fill-286" fill="#BDD2D2" mask="url(#mask-2)" points="247.856 120.263 247.856 120.263 248.27 118.402 247.856 120.263"></polyline>
                <polyline id="Fill-287" fill="#BDD2D2" mask="url(#mask-2)" points="245.308 131.71 245.308 131.71 245.722 129.848 245.308 131.71"></polyline>
                <polyline id="Fill-288" fill="#BDD2D2" mask="url(#mask-2)" points="242.759 143.157 242.759 143.157 243.174 141.295 242.759 143.157"></polyline>
                <polyline id="Fill-289" fill="#2A4D8A" mask="url(#mask-2)" points="252.689 82.507 249.277 81.748 252.689 82.507"></polyline>
                <path d="M252.686,98.566 L245.871,97.049 L249.277,81.748 L252.689,82.507 C254.312,82.869 255.416,84.306 255.419,85.902 C255.419,86.155 255.392,86.411 255.335,86.668 L252.686,98.566" id="Fill-290" fill="#49669B" mask="url(#mask-2)"></path>
                <path d="M234.63,179.672 C232.316,179.338 230.004,179.021 227.69,178.721 L245.871,97.049 L252.686,98.566 L234.63,179.672" id="Fill-291" fill="#2A4D8A" mask="url(#mask-2)"></path>
                <polyline id="Fill-292" fill="#E15F64" mask="url(#mask-2)" points="61.784 250.575 20.74 163.516 33.512 157.494 74.556 244.554 61.784 250.575"></polyline>
                <path d="M4.427,132.172 L0.383,109.507 C0.189,108.369 0.76,107.264 1.793,106.776 C2.828,106.289 4.044,106.552 4.798,107.426 L19.71,124.967 L4.427,132.172" id="Fill-293" fill="#CBE1E3" mask="url(#mask-2)"></path>
                <polyline id="Fill-294" fill="#E7F1EE" mask="url(#mask-2)" points="19.483 164.108 4.427 132.172 19.71 124.967 34.766 156.903 19.483 164.108"></polyline>
                <polyline id="Fill-295" fill="#E7F1EE" mask="url(#mask-2)" points="258.577 246.604 300.058 53.594 335.247 61.157 293.766 254.166 258.577 246.604"></polyline>
                <path d="M299.124,57.941 C290.836,56.16 280.099,59.214 280.099,59.214 C280.099,59.214 294.305,80.363 288.476,107.484 L299.124,57.941" id="Fill-296" fill="#CBE1E3" mask="url(#mask-2)"></path>
                <path d="M316.06,159.573 C315.951,159.573 315.839,159.562 315.727,159.538 L277.434,151.309 C276.582,151.125 276.04,150.286 276.223,149.434 C276.407,148.583 277.242,148.041 278.098,148.223 L316.39,156.452 C317.242,156.636 317.785,157.475 317.602,158.326 C317.442,159.066 316.788,159.573 316.06,159.573" id="Fill-297" fill="#E15F64" mask="url(#mask-2)"></path>
                <path d="M303.511,147.996 C303.235,147.996 302.934,148.041 302.631,148.131 C301.499,148.468 300.522,149.366 299.948,150.594 C299.684,151.159 299.53,151.746 299.484,152.32 C300.932,152.245 302.264,151.989 303.387,151.287 C304.088,150.849 304.58,150.286 304.772,149.703 C304.94,149.191 304.844,148.61 304.544,148.32 C304.324,148.107 303.948,147.996 303.511,147.996 Z M297.462,156.584 C297.197,157.267 296.918,157.94 296.642,158.604 C295.923,160.337 295.243,161.975 294.836,163.69 C294.533,164.971 294.359,166.023 294.494,166.996 C294.623,167.924 295.081,168.702 295.687,169.028 C296.897,169.676 298.706,168.667 299.866,167.334 C301.309,165.677 301.948,163.811 301.574,162.342 C301.279,161.187 300.375,160.163 299.419,159.079 C298.733,158.303 298.031,157.506 297.462,156.584 Z M289.003,155.899 C285.262,156.569 281.626,157.921 278.404,159.869 C275.85,161.414 274.24,162.951 273.342,164.707 C272.317,166.707 272.417,169.082 273.587,170.484 C274.16,171.169 275.16,171.606 276.149,171.606 L276.206,171.606 C276.672,171.599 277.536,171.481 278.077,170.786 C278.606,170.107 278.774,169.123 278.968,167.983 C279.099,167.211 279.234,166.413 279.504,165.613 C280.526,162.568 283.209,160.498 285.169,158.986 C285.783,158.512 286.428,157.984 287.099,157.436 C287.715,156.932 288.351,156.412 289.003,155.899 Z M276.145,174.762 C274.203,174.762 272.347,173.924 271.164,172.507 C269.175,170.123 268.922,166.41 270.533,163.268 C271.71,160.968 273.693,159.03 276.772,157.168 C282.192,153.89 288.387,152.21 294.733,152.261 C295.276,152.028 295.825,151.834 296.379,151.685 C296.485,150.865 296.721,150.045 297.088,149.259 C298.043,147.215 299.735,145.701 301.729,145.106 C303.66,144.534 305.531,144.885 306.736,146.05 C307.915,147.189 308.322,149.009 307.769,150.688 C307.349,151.971 306.386,153.134 305.059,153.963 C303.631,154.856 302.057,155.249 300.471,155.406 C300.854,155.935 301.312,156.454 301.785,156.99 C302.893,158.245 304.149,159.668 304.632,161.562 C305.272,164.073 304.402,166.932 302.246,169.407 C300.263,171.687 297.006,173.318 294.194,171.81 C292.694,171.004 291.637,169.367 291.369,167.431 C291.152,165.884 291.432,164.369 291.765,162.963 C292.23,160.999 292.991,159.166 293.728,157.394 C293.918,156.933 294.107,156.481 294.286,156.032 C292.51,157.088 290.734,158.541 289.096,159.879 C288.401,160.447 287.733,160.993 287.097,161.484 L287.096,161.484 C285.367,162.82 283.213,164.481 282.496,166.618 C282.305,167.185 282.196,167.83 282.078,168.514 C281.847,169.876 281.584,171.42 280.566,172.727 C279.58,173.991 278.01,174.732 276.257,174.761 L276.145,174.762 L276.145,174.762 Z" id="Fill-298" fill="#E5777A" mask="url(#mask-2)"></path>
                <polyline id="Fill-299" fill="#F8C66A" mask="url(#mask-2)" points="64.515 228.995 28.559 139.714 41.656 134.439 77.613 223.721 64.515 228.995"></polyline>
                <polyline id="Fill-300" fill="#E7F1EE" mask="url(#mask-2)" points="64.515 228.995 75.168 246.424 82.013 243.668 77.613 223.721 64.515 228.995"></polyline>
                <path d="M14.08,107.482 L11.35,84.622 C11.221,83.475 11.855,82.403 12.915,81.977 C13.976,81.549 15.176,81.882 15.877,82.798 L29.753,101.17 L14.08,107.482" id="Fill-301" fill="#CBE1E3" mask="url(#mask-2)"></path>
                <polyline id="Fill-302" fill="#E7F1EE" mask="url(#mask-2)" points="27.27 140.233 14.08 107.482 29.753 101.17 42.943 133.921 27.27 140.233"></polyline>
                <polyline id="Fill-303" fill="#00627E" mask="url(#mask-2)" points="38.849 72.154 35.548 73.416 38.255 86.895 45.822 84.003 38.849 72.154"></polyline>
                <path d="M35.548,73.416 C35.548,73.416 26.464,71.962 24.937,64.835 C23.41,57.707 27.861,52.15 20.528,45.912 C20.528,45.912 46.661,49.365 38.849,72.154" id="Fill-304" fill="#00A9A2" mask="url(#mask-2)"></path>
                <polyline id="Fill-305" fill="#284F91" mask="url(#mask-2)" points="45.822 84.003 38.255 86.895 53.05 125.609 60.617 122.718 45.822 84.003"></polyline>
                <path d="M53.05,125.609 L97.991,243.208 C98.789,245.298 101.13,246.345 103.22,245.546 C105.309,244.747 106.356,242.406 105.558,240.316 L60.617,122.718 L53.05,125.609" id="Fill-306" fill="#00627E" mask="url(#mask-2)"></path>
                <polyline id="Fill-307" fill="#00A9A2" mask="url(#mask-2)" points="136.277 75.812 132.754 76.091 131.548 89.787 139.623 89.148 136.277 75.812"></polyline>
                <path d="M136.277,75.812 L132.754,76.091 C132.754,76.091 120.238,59.511 123.305,54.582 C125.812,50.553 139.117,49.5 142.226,53.085 C146.03,57.47 136.277,75.812 136.277,75.812" id="Fill-308" fill="#F8C66A" mask="url(#mask-2)"></path>
                <polyline id="Fill-309" fill="#00A394" mask="url(#mask-2)" points="139.623 89.148 131.547 89.787 134.816 131.103 142.891 130.464 139.623 89.148"></polyline>
                <path d="M134.816,131.103 L144.746,256.604 C144.923,258.833 146.874,260.498 149.103,260.322 C151.333,260.146 152.998,258.194 152.822,255.965 L142.892,130.464 L134.816,131.103" id="Fill-310" fill="#00A9A2" mask="url(#mask-2)"></path>
                <polyline id="Fill-311" fill="#00A9A2" mask="url(#mask-2)" points="154.647 219.312 170.237 124.334 184.17 126.621 168.58 221.6 154.647 219.312"></polyline>
                <polyline id="Fill-312" fill="#E7F1EE" mask="url(#mask-2)" points="154.647 219.313 154.71 239.739 161.991 240.935 168.58 221.6 154.647 219.313"></polyline>
                <path d="M174.584,89.268 L184.113,68.309 C184.598,67.262 185.696,66.675 186.824,66.86 C187.952,67.045 188.805,67.952 188.93,69.1 L191.258,92.004 L174.584,89.268" id="Fill-313" fill="#CBE1E3" mask="url(#mask-2)"></path>
                <polyline id="Fill-314" fill="#E7F1EE" mask="url(#mask-2)" points="168.866 124.108 174.584 89.268 191.258 92.004 185.539 126.846 168.866 124.108"></polyline>
                <path d="M125.109,275.322 C129.044,274.828 131.811,271.268 131.317,267.333 L130.445,260.386 L128.239,242.637 L109.19,90.892 L101.177,74.806 L95.788,75.482 L92,93.05 L114.15,269.51 C114.639,273.401 118.225,276.187 122.14,275.717 L125.109,275.322" id="Fill-315" fill="#EDD9C3" mask="url(#mask-2)"></path>
                <polyline id="Fill-316" fill="#F8C66A" mask="url(#mask-2)" points="128.239 242.637 125.887 242.932 121.782 243.447 119.643 243.716 100.595 91.971 109.19 90.892 128.239 242.637"></polyline>
                <polyline id="Fill-317" fill="#E2A441" mask="url(#mask-2)" points="119.643 243.716 117.7 243.981 113.595 244.497 111.048 244.795 91.999 93.05 100.595 91.971 119.643 243.716"></polyline>
                <polyline id="Fill-318" fill="#00627E" mask="url(#mask-2)" points="97.547 67.691 101.177 74.807 95.788 75.483 97.547 67.691"></polyline>
                <polyline id="Fill-319" fill="#CBE1E3" mask="url(#mask-2)" points="109.19 90.892 92 93.05 95.788 75.483 101.177 74.807 109.19 90.892"></polyline>
                <path d="M121.18,186.407 L119.977,176.824 C126.097,176.243 132.214,175.778 138.323,175.43 L139.086,185.068 C133.115,185.401 127.151,185.847 121.18,186.407 M154.382,184.463 C154.129,183.875 153.585,183.429 152.905,183.332 L150.357,182.965 C150.944,182.371 151.757,182.013 152.631,182.013 C152.783,182.013 152.936,182.024 153.091,182.046 C154.415,182.237 155.432,183.212 155.74,184.433 C155.286,184.443 154.836,184.452 154.382,184.463 M147.827,182.601 L147.008,182.483 L146.418,175.037 C147.254,175.004 148.094,174.973 148.929,174.944 L147.827,182.601" id="Fill-320" fill="#C95A5E" mask="url(#mask-2)"></path>
                <path d="M155.74,184.433 C155.432,183.212 154.415,182.237 153.091,182.046 C152.936,182.024 152.783,182.013 152.631,182.013 C151.757,182.013 150.944,182.371 150.357,182.965 L147.827,182.601 L148.929,174.944 C153.282,174.792 157.631,174.701 161.975,174.67 L160.384,184.361 C158.84,184.378 157.284,184.402 155.74,184.433" id="Fill-321" fill="#5C7B84" mask="url(#mask-2)"></path>
                <path d="M269.488,195.833 C257.163,193.111 244.852,190.874 232.527,189.119 L234.63,179.672 C246.936,181.445 259.239,183.687 271.517,186.394 L269.488,195.833 M218.617,187.343 C203.971,185.689 189.326,184.716 174.682,184.427 L176.265,174.783 C191.044,175.122 205.881,176.153 220.727,177.867 L218.617,187.343" id="Fill-322" fill="#819DA5" mask="url(#mask-2)"></path>
                <path d="M147.182,184.686 L147.008,182.483 L147.827,182.601 L150.357,182.965 L152.905,183.332 C153.585,183.429 154.129,183.875 154.382,184.463 C151.981,184.519 149.583,184.593 147.182,184.686" id="Fill-323" fill="#B3C9C9" mask="url(#mask-2)"></path>
                <path d="M65.973,194.819 L65.971,194.814 C69.461,194.078 72.95,193.381 76.44,192.722 L76.44,192.727 C72.95,193.386 69.463,194.082 65.973,194.819" id="Fill-324" fill="#00938A" mask="url(#mask-2)"></path>
                <path d="M65.971,194.814 L62.314,185.733 C66.556,184.826 70.803,183.973 75.049,183.176 L76.44,186.816 L76.44,188.629 L70.868,188.629 C69.818,188.629 68.967,189.48 68.967,190.53 C68.967,191.581 69.818,192.432 70.868,192.432 L76.44,192.432 L76.44,192.722 C72.95,193.381 69.461,194.078 65.971,194.814" id="Fill-325" fill="#005650" mask="url(#mask-2)"></path>
                <path d="M76.44,192.727 L76.44,192.432 L78.017,192.432 C77.494,192.529 76.962,192.628 76.44,192.727 M86.675,190.906 L83.165,181.72 C87.157,181.038 91.151,180.405 95.144,179.821 L95.144,189.568 C92.324,189.988 89.496,190.435 86.675,190.906 M77.133,188.629 L76.44,188.629 L76.44,186.816 L77.133,188.629" id="Fill-326" fill="#BE5058" mask="url(#mask-2)"></path>
                <path d="M95.144,189.568 L95.144,179.821 C97.681,179.45 100.222,179.098 102.759,178.767 L103.961,188.336 C101.021,188.72 98.084,189.13 95.144,189.568" id="Fill-327" fill="#C95A5E" mask="url(#mask-2)"></path>
                <path d="M78.017,192.432 L70.868,192.432 C69.818,192.432 68.967,191.581 68.967,190.53 C68.967,189.48 69.818,188.629 70.868,188.629 L77.133,188.629 L78.549,192.334 C78.367,192.367 78.198,192.398 78.017,192.432" id="Fill-328" fill="#C95A5E" mask="url(#mask-2)"></path>
                <path d="M25.976,204.955 L25.976,204.95 C25.978,204.952 25.978,204.952 25.98,204.954 C25.976,204.955 25.976,204.955 25.976,204.955" id="Fill-329" fill="#009E95" mask="url(#mask-2)"></path>
                <path d="M25.976,204.955 L25.976,204.955 C25.98,204.954 25.98,204.954 25.98,204.954 C25.976,204.955 25.976,204.955 25.976,204.955" id="Fill-330" fill="#00938A" mask="url(#mask-2)"></path>
                <path d="M25.976,204.95 C26.011,204.94 26.053,204.928 26.087,204.918 L26.073,204.922 C26.041,204.932 26.009,204.941 25.976,204.95" id="Fill-331" fill="#009E95" mask="url(#mask-2)"></path>
                <path d="M26.073,204.922 L26.087,204.918 C30.258,203.684 34.422,202.508 38.594,201.386 L38.596,201.39 C34.697,202.439 30.803,203.536 26.904,204.682 C26.627,204.762 26.35,204.842 26.073,204.922" id="Fill-332" fill="#00938A" mask="url(#mask-2)"></path>
                <path d="M25.98,204.954 L25.98,204.954 C25.978,204.952 25.978,204.952 25.976,204.95 C26.009,204.941 26.041,204.932 26.073,204.922 C26.35,204.842 26.627,204.762 26.904,204.682 C26.597,204.772 26.283,204.864 25.976,204.955" id="Fill-333" fill="#005650" mask="url(#mask-2)"></path>
                <path d="M18.451,199.083 C18.385,198.407 18.322,197.735 18.263,197.069 L18.266,197.069 C18.323,197.737 18.385,198.408 18.451,199.083" id="Fill-334" fill="#008A7D" mask="url(#mask-2)"></path>
                <path d="M25.976,211.502 C25.517,211.092 25.082,210.656 24.622,210.197 L19.086,204.637 C18.967,203.734 18.856,202.833 18.754,201.939 C18.737,201.788 18.72,201.638 18.703,201.488 C18.613,200.681 18.529,199.879 18.451,199.083 C18.385,198.408 18.323,197.737 18.266,197.069 L28.805,194.071 C30.672,193.541 32.542,193.021 34.411,192.513 L38.594,201.386 C34.422,202.508 30.258,203.684 26.087,204.918 C26.053,204.928 26.011,204.94 25.976,204.95 L25.976,211.502" id="Fill-335" fill="#005650" mask="url(#mask-2)"></path>
                <path d="M304.975,205.003 L304.975,205.003 C304.974,205 304.973,205.001 304.975,204.999 C304.975,205.003 304.975,205.003 304.975,205.003" id="Fill-336" fill="#00938A" mask="url(#mask-2)"></path>
                <path d="M304.975,204.999 C304.949,204.991 304.922,204.984 304.896,204.976 L304.885,204.972 C304.913,204.981 304.947,204.991 304.975,204.999" id="Fill-337" fill="#009E95" mask="url(#mask-2)"></path>
                <path d="M304.896,204.976 C304.721,204.925 304.545,204.874 304.371,204.824 L304.371,204.821 C304.542,204.871 304.715,204.922 304.885,204.972 L304.896,204.976" id="Fill-338" fill="#00938A" mask="url(#mask-2)"></path>
                <path d="M304.975,205.003 C304.776,204.944 304.569,204.883 304.37,204.824 L304.371,204.824 C304.545,204.874 304.721,204.925 304.896,204.976 C304.922,204.984 304.949,204.991 304.975,204.999 C304.973,205.001 304.974,205 304.972,205.002" id="Fill-339" fill="#005650" mask="url(#mask-2)"></path>
                <path d="M312.08,203.359 C312.332,201.268 312.552,199.186 312.728,197.139 L312.736,197.142 C312.578,198.928 312.395,200.739 312.178,202.558 L312.175,202.556 C312.145,202.816 312.114,203.076 312.083,203.337 C312.082,203.344 312.081,203.351 312.08,203.359" id="Fill-340" fill="#008A7D" mask="url(#mask-2)"></path>
                <path d="M304.975,211.551 L304.975,204.999 C304.947,204.991 304.913,204.981 304.885,204.972 C304.715,204.922 304.542,204.871 304.371,204.821 L306.409,195.34 L312.728,197.139 C312.552,199.186 312.332,201.268 312.08,203.359 C312.027,203.785 311.971,204.211 311.914,204.637 L306.329,210.245 C305.869,210.704 305.434,211.14 304.975,211.551 M48.658,189.621 L48.331,188.928 C48.348,188.924 48.358,188.921 48.374,188.917 L48.658,189.621" id="Fill-341" fill="#005650" mask="url(#mask-2)"></path>
                <path d="M225.584,188.181 C223.262,187.884 220.939,187.605 218.617,187.343 L220.727,177.867 C223.046,178.135 225.37,178.42 227.69,178.721 L225.584,188.181" id="Fill-342" fill="#2B4C87" mask="url(#mask-2)"></path>
                <polyline id="Fill-343" fill="#7A979D" mask="url(#mask-2)" points="232.527 189.119 232.527 189.119 234.63 179.672 232.527 189.119"></polyline>
                <path d="M232.527,189.119 C230.211,188.789 227.9,188.477 225.584,188.181 L227.69,178.721 C230.004,179.021 232.316,179.338 234.63,179.672 L232.527,189.119" id="Fill-344" fill="#2D4B81" mask="url(#mask-2)"></path>
                <path d="M38.596,201.39 L38.594,201.386 L34.411,192.513 C39.045,191.252 43.686,190.057 48.331,188.928 L48.658,189.621 L52.02,197.969 C47.542,199.046 43.073,200.185 38.596,201.39" id="Fill-345" fill="#C95A5E" mask="url(#mask-2)"></path>
                <path d="M304.37,204.824 C304.319,204.809 304.276,204.797 304.225,204.782 C292.647,201.373 281.065,198.389 269.488,195.833 L271.517,186.394 C281.742,188.647 291.949,191.223 302.122,194.119 L306.409,195.34 L304.371,204.821 L304.371,204.824 L304.37,204.824" id="Fill-346" fill="#C9D4D0" mask="url(#mask-2)"></path>
                <path d="M52.02,197.969 L48.658,189.621 L48.374,188.917 C53.017,187.79 57.663,186.728 62.314,185.733 L65.971,194.814 L65.973,194.819 C61.325,195.799 56.668,196.851 52.02,197.969" id="Fill-347" fill="#D9B263" mask="url(#mask-2)"></path>
                <path d="M78.549,192.334 L75.049,183.176 C77.754,182.668 80.459,182.183 83.165,181.72 L86.675,190.906 C83.968,191.358 81.256,191.835 78.549,192.334" id="Fill-348" fill="#005E75" mask="url(#mask-2)"></path>
                <path d="M139.086,185.068 L138.323,175.43 C141.024,175.276 143.721,175.145 146.418,175.037 L147.182,184.686 C144.486,184.79 141.782,184.917 139.086,185.068" id="Fill-349" fill="#009E95" mask="url(#mask-2)"></path>
                <path d="M174.682,184.427 C171.577,184.366 168.471,184.335 165.366,184.335 C163.703,184.335 162.047,184.344 160.384,184.361 L161.975,174.67 C163.11,174.661 164.244,174.657 165.379,174.657 C169.004,174.657 172.632,174.699 176.265,174.783 L174.682,184.427" id="Fill-350" fill="#009E95" mask="url(#mask-2)"></path>
                <path d="M112.561,187.294 L111.359,177.72 C114.232,177.396 117.105,177.097 119.977,176.824 L121.18,186.407 C118.308,186.676 115.433,186.972 112.561,187.294" id="Fill-351" fill="#D9B263" mask="url(#mask-2)"></path>
                <path d="M103.961,188.336 L102.759,178.767 C105.628,178.392 108.491,178.043 111.359,177.72 L112.561,187.294 C109.695,187.615 106.827,187.963 103.961,188.336" id="Fill-352" fill="#C99541" mask="url(#mask-2)"></path>
            </g>
        </g>
    </g>
</svg>