<?xml version="1.0" encoding="UTF-8"?>
<svg width="86px" height="92px" viewBox="0 0 86 92" version="1.1" xmlns="http://www.w3.org/2000/svg" xmlns:xlink="http://www.w3.org/1999/xlink">
    <!-- Generator: Sketch 57.1 (83088) - https://sketch.com -->
    <title>bizzard-icon</title>
    <desc>Created with Sketch.</desc>
    <g id="Page-1" stroke="none" stroke-width="1" fill="none" fill-rule="evenodd">
        <g id="bizzard-icon" fill="#6DAEB4">
            <path d="M81.3074257,49.736 L61.9624257,52.064 L51.3504257,45.94 L61.9624257,39.813 L81.3114257,42.145 C81.4774257,42.163 81.6444257,42.174 81.8094257,42.174 C83.8934257,42.174 85.6974257,40.618 85.9544257,38.497 C86.2264257,36.207 84.5954257,34.127 82.3064257,33.852 L74.0124257,32.854 L81.2474257,28.678 C83.2414257,27.522 83.9294257,24.969 82.7744257,22.972 C81.6144257,20.972 79.0544257,20.293 77.0684257,21.443 L69.8394257,25.617 L73.1194257,17.942 C74.0244257,15.82 73.0394257,13.365 70.9204257,12.46 C68.8124257,11.556 66.3524257,12.538 65.4394257,14.658 L57.7794257,32.581 L47.1654257,38.704 L47.1654257,26.445 L58.8604257,10.858 C60.2494257,9.012 59.8734257,6.393 58.0224257,5.012 C56.1844257,3.623 53.5624257,4.008 52.1834257,5.847 L47.1654257,12.529 L47.1654257,4.176 C47.1654257,1.87 45.2994257,-3.97903932e-13 42.9924257,-3.97903932e-13 C40.6854257,-3.97903932e-13 38.8194257,1.87 38.8194257,4.176 L38.8194257,12.529 L33.8014257,5.847 C32.4214257,4.004 29.8034257,3.619 27.9614257,5.012 C26.1114257,6.393 25.7344257,9.012 27.1244257,10.858 L38.8194257,26.445 L38.8194257,38.702 L28.2044257,32.579 L20.5454257,14.656 C19.6314257,12.534 17.1714257,11.552 15.0644257,12.458 C12.9444257,13.363 11.9604257,15.818 12.8654257,17.939 L16.1444257,25.615 L8.91542566,21.441 C6.92042566,20.287 4.36642566,20.971 3.20942566,22.97 C2.05542566,24.967 2.74342566,27.522 4.73642566,28.676 L11.9724257,32.852 L3.67842566,33.85 C1.38942566,34.125 -0.241574335,36.205 0.0294256648,38.495 C0.286425665,40.616 2.09142566,42.172 4.17442566,42.172 C4.34042566,42.172 4.50742566,42.162 4.67342566,42.143 L24.0224257,39.812 L34.6384257,45.94 L24.0224257,52.066 L4.67342566,49.738 C2.43442566,49.453 0.308425665,51.094 0.0294256648,53.385 C-0.241574335,55.675 1.38942566,57.755 3.67842566,58.028 L11.9724257,59.028 L4.73642566,63.202 C2.74342566,64.356 2.05542566,66.908 3.20942566,68.908 C3.98742566,70.247 5.38842566,70.995 6.83042566,70.995 C7.54142566,70.995 8.25742566,70.815 8.91542566,70.437 L16.1444257,66.263 L12.8654257,73.943 C11.9604257,76.061 12.9444257,78.519 15.0644257,79.422 C15.5964257,79.65 16.1524257,79.762 16.7034257,79.762 C18.3244257,79.762 19.8714257,78.808 20.5454257,77.225 L28.2044257,59.3 L38.8194257,53.175 L38.8194257,65.426 L27.1244257,81.013 C25.7344257,82.859 26.1114257,85.478 27.9614257,86.86 C29.8074257,88.25 32.4254257,87.869 33.8014257,86.024 L38.8194257,79.342 L38.8194257,87.695 C38.8194257,90.002 40.6854257,91.871 42.9924257,91.871 C45.2994257,91.871 47.1654257,90.002 47.1654257,87.695 L47.1654257,79.342 L52.1834257,86.024 C52.9964257,87.118 54.2524257,87.695 55.5224257,87.695 C56.4004257,87.695 57.2754257,87.424 58.0224257,86.86 C59.8734257,85.478 60.2494257,82.859 58.8604257,81.013 L47.1654257,65.426 L47.1654257,53.173 L57.7794257,59.3 L65.4354257,77.22 C66.1074257,78.804 67.6564257,79.757 69.2754257,79.757 C69.8254257,79.757 70.3834257,79.647 70.9164257,79.42 C73.0334257,78.514 74.0204257,76.059 73.1154257,73.94 L69.8354257,66.26 L77.0684257,70.434 C77.7264257,70.813 78.4424257,70.992 79.1544257,70.992 C80.5954257,70.992 81.9974257,70.245 82.7744257,68.905 C83.9294257,66.908 83.2414257,64.353 81.2474257,63.199 L74.0124257,59.026 L82.3024257,58.026 C84.5914257,57.753 86.2214257,55.673 85.9504257,53.382 C85.6714257,51.092 83.5664257,49.457 81.3074257,49.736" id="Fill-35-Copy"></path>
        </g>
    </g>
</svg>