<?xml version="1.0" encoding="UTF-8"?>
<svg width="378px" height="378px" viewBox="0 0 378 378" version="1.1" xmlns="http://www.w3.org/2000/svg" xmlns:xlink="http://www.w3.org/1999/xlink">
    <!-- Generator: Sketch 57.1 (83088) - https://sketch.com -->
    <title>courses_books</title>
    <desc>Created with Sketch.</desc>
    <defs>
        <path d="M198.317287,2.70896728 C198.317287,2.70896728 189.706216,19.5169017 199.300859,38.4444251 L1.11700166,38.4444251 L0.12957309,0.228062826 L198.317287,2.70896728 L198.317287,2.70896728 Z" id="path-1"></path>
        <polyline id="path-3" points="15.4960714 5.99344427 0.644142857 0.303207814 0.709714286 0.119651799 15.6561429 5.54518116 15.4960714 5.99344427"></polyline>
        <linearGradient x1="37.2559096%" y1="48.4086211%" x2="569.406475%" y2="-497.046554%" id="linearGradient-5">
            <stop stop-color="#BEE0CE" offset="0%"></stop>
            <stop stop-color="#BEE0CE" offset="100%"></stop>
        </linearGradient>
        <path d="M15.6561429,54.59349 L0.709714286,49.1679607 L12.8577857,15.5462953 L27.6807857,20.9273848 L15.6561429,54.59349 M31.4357143,10.4105912 L16.6532143,5.04302692 L18.2809286,0.537209798 L33.0460714,5.89897759 L31.4357143,10.4105912" id="path-6"></path>
        <linearGradient x1="38.224568%" y1="94.2667191%" x2="126.628557%" y2="-292.876291%" id="linearGradient-8">
            <stop stop-color="#FCCC8A" offset="0%"></stop>
            <stop stop-color="#FCCC8A" offset="100%"></stop>
        </linearGradient>
        <path d="M0.000692887225,1.4036438 C0.000692887225,1.4036438 0.49055003,1.18292676 2.38826432,0.949226372 C1.60140717,1.07126991 0.804907173,1.22187683 0.000692887225,1.4036438 M11.2384786,0.796022784 C10.0524072,0.653205879 8.83740717,0.575305749 7.59733574,0.564919065 C7.60505003,0.564919065 7.61276432,0.564919065 7.6204786,0.564919065 C7.79405003,0.557129052 7.9714786,0.554532381 8.15276432,0.554532381 C9.1324786,0.554532381 10.2086215,0.653205879 11.2384786,0.796022784" id="path-9"></path>
        <linearGradient x1="-611.086322%" y1="134.979686%" x2="99.7871975%" y2="49.2144928%" id="linearGradient-11">
            <stop stop-color="#BEE0CE" offset="0%"></stop>
            <stop stop-color="#BEE0CE" offset="100%"></stop>
        </linearGradient>
        <path d="M14.8445484,152.766908 L0.116048369,147.420598 L52.9511912,1.18635151 C53.7554055,1.0510997 54.5519055,0.939033928 55.3387627,0.848222004 C56.4881912,0.743884901 58.1564055,0.63761563 60.5478341,0.562261055 C61.7879055,0.56998973 63.0029055,0.627954787 64.1889769,0.734224059 C66.6729769,0.985405973 68.8946912,1.41627957 68.8946912,1.41627957 L64.3567627,14.1222201 L58.0136912,11.8190752 L36.6663341,70.8390965 L43.2504769,73.2272568 L14.8445484,152.766908 M44.3227627,70.2246669 L40.7471912,68.9262496 L59.9229769,15.9075439 L63.2844769,17.1286744 L44.3227627,70.2246669" id="path-12"></path>
        <linearGradient x1="35.0881044%" y1="136.866225%" x2="58.8057109%" y2="-0.629649377%" id="linearGradient-14">
            <stop stop-color="#FCCC8A" offset="0%"></stop>
            <stop stop-color="#FCCC8A" offset="100%"></stop>
        </linearGradient>
        <polyline id="path-15" points="6.6076198 61.6342454 0.0234769404 59.246085 21.3708341 0.226063723 27.7139055 2.52920866 26.6416198 5.53566297 23.2801198 4.31453243 4.10433408 57.3332381 7.67990551 58.6316554 6.6076198 61.6342454"></polyline>
        <linearGradient x1="1.36474914%" y1="320.901768%" x2="60.0258603%" y2="-19.8917626%" id="linearGradient-17">
            <stop stop-color="#969287" offset="0%"></stop>
            <stop stop-color="#969287" offset="100%"></stop>
        </linearGradient>
        <polyline id="path-18" points="14.8098588 16.4388902 0.0447159468 11.0771224 3.83821595 0.575786235 18.5667159 5.92209668 14.8098588 16.4388902"></polyline>
        <linearGradient x1="-65.0249896%" y1="297.505143%" x2="366.280716%" y2="-670.170905%" id="linearGradient-20">
            <stop stop-color="#969287" offset="0%"></stop>
            <stop stop-color="#969287" offset="100%"></stop>
        </linearGradient>
        <polyline id="path-21" points="15.2302874 16.0099488 0.407287375 10.6288593 4.20271595 0.125590957 18.9852159 5.49315526 15.2302874 16.0099488"></polyline>
        <linearGradient x1="-35.6379113%" y1="227.230431%" x2="394.369355%" y2="-735.916766%" id="linearGradient-23">
            <stop stop-color="#969287" offset="0%"></stop>
            <stop stop-color="#969287" offset="100%"></stop>
        </linearGradient>
        <path d="M0.141144518,146.941487 L19.2436445,146.941487 L19.2436445,128.199452 L0.141144518,128.199452 L0.141144518,146.941487 Z M0.141144518,115.418157 L19.2436445,115.418157 L19.2436445,109.942391 L0.141144518,109.942391 L0.141144518,115.418157 Z M0.141144518,97.1630281 L19.2436445,97.1630281 L19.2436445,18.660951 L0.141144518,18.660951 L0.141144518,97.1630281 Z M0.141144518,5.88352025 L19.2436445,5.88352025 L19.2436445,0.403890166 L0.141144518,0.403890166 L0.141144518,5.88352025 Z" id="path-24"></path>
        <linearGradient x1="49.9959616%" y1="100%" x2="49.9959616%" y2="-23.4412785%" id="linearGradient-26">
            <stop stop-color="#C0778F" offset="0%"></stop>
            <stop stop-color="#C0778F" offset="100%"></stop>
        </linearGradient>
        <path d="M0.123762655,3.34050988 L0.137262655,3.30186651 C0.501762655,3.1608182 0.939548369,3.00044821 1.4641198,2.81882436 C0.958834083,3.00624472 0.511405512,3.18207206 0.123762655,3.34050988 M7.42726265,0.923366992 C8.49569123,0.608423514 9.74154837,0.322462565 10.9816198,0.0751449877 C9.72033408,0.341784251 8.53040551,0.6277452 7.42726265,0.923366992" id="path-27"></path>
        <linearGradient x1="71.6003552%" y1="5507.75148%" x2="71.6003552%" y2="-31.8402367%" id="linearGradient-29">
            <stop stop-color="#BEE0CE" offset="0%"></stop>
            <stop stop-color="#BEE0CE" offset="100%"></stop>
        </linearGradient>
        <path d="M0.141144518,2.04623346 C0.141144518,2.04623346 0.366787375,1.83176274 1.9308588,1.23472265 L1.9173588,1.27336603 C0.766001661,1.73901865 0.141144518,2.04623346 0.141144518,2.04623346" id="path-30"></path>
        <linearGradient x1="498.81%" y1="9170.1%" x2="498.81%" y2="-191.81%" id="linearGradient-32">
            <stop stop-color="#FCCC8A" offset="0%"></stop>
            <stop stop-color="#FCCC8A" offset="100%"></stop>
        </linearGradient>
        <path d="M19.2436445,21.6613992 L0.141144518,21.6613992 L0.141144518,5.16647612 C0.141144518,5.16647612 0.766001661,4.85926131 1.9173588,4.39360869 C2.30500166,4.23517086 2.75243023,4.05934352 3.25771595,3.87192317 C4.58264452,3.40820271 6.46107309,2.79763744 9.12057309,2.00544833 C9.1533588,1.99578749 9.18614452,1.98612664 9.2208588,1.9764658 C10.3240017,1.68084401 11.5139302,1.39488306 12.7752159,1.1282438 C16.0210017,0.480967323 19.2436445,0.0887371019 19.2436445,0.0887371019 L19.2436445,21.6613992" id="path-33"></path>
        <linearGradient x1="49.9959616%" y1="838.504254%" x2="49.9959616%" y2="-0.000895656068%" id="linearGradient-35">
            <stop stop-color="#C0778F" offset="0%"></stop>
            <stop stop-color="#C0778F" offset="100%"></stop>
        </linearGradient>
        <linearGradient x1="49.9959616%" y1="389.522226%" x2="49.9959616%" y2="-1025.94648%" id="linearGradient-36">
            <stop stop-color="#9F6C80" offset="0%"></stop>
            <stop stop-color="#9F6C80" offset="100%"></stop>
        </linearGradient>
        <linearGradient x1="49.9959616%" y1="246.636432%" x2="49.9959616%" y2="-1168.61829%" id="linearGradient-37">
            <stop stop-color="#9F6C80" offset="0%"></stop>
            <stop stop-color="#9F6C80" offset="100%"></stop>
        </linearGradient>
        <linearGradient x1="49.9959616%" y1="1246.84712%" x2="49.9959616%" y2="-168.835627%" id="linearGradient-38">
            <stop stop-color="#9F6C80" offset="0%"></stop>
            <stop stop-color="#9F6C80" offset="100%"></stop>
        </linearGradient>
        <linearGradient x1="49.9959616%" y1="1103.96189%" x2="49.9959616%" y2="-311.720853%" id="linearGradient-39">
            <stop stop-color="#9F6C80" offset="0%"></stop>
            <stop stop-color="#9F6C80" offset="100%"></stop>
        </linearGradient>
        <path d="M0.304714286,4.11337731 C0.304714286,4.11337731 0.648,3.78877299 3.39621429,2.82655304 C1.41171429,3.57043794 0.304714286,4.11337731 0.304714286,4.11337731 M9.38442857,0.923366992 C10.449,0.610355683 11.6871429,0.326326902 12.9214286,0.0790093248 C11.6659286,0.34371642 10.4837143,0.629677369 9.38442857,0.923366992" id="path-40"></path>
        <linearGradient x1="75.7107918%" y1="4457.80651%" x2="75.7107918%" y2="-25.8668582%" id="linearGradient-42">
            <stop stop-color="#BEE0CE" offset="0%"></stop>
            <stop stop-color="#BEE0CE" offset="100%"></stop>
        </linearGradient>
        <path d="M19.4091429,180.976427 L0.304714286,180.976427 L0.304714286,5.16647612 C0.304714286,5.16647612 1.41171429,4.62353675 3.39621429,3.87965185 C4.72114286,3.41593139 6.60728571,2.80343395 9.28414286,2.00544833 C9.31885714,1.99578749 9.35164286,1.98612664 9.38442857,1.9764658 C10.4837143,1.68277618 11.6659286,1.39681523 12.9214286,1.13210813 C16.1749286,0.482899491 19.4091429,0.0887371019 19.4091429,0.0887371019 L19.4091429,21.6613992 L11.8568571,21.6613992 L11.8568571,54.9797142 L19.4091429,54.9797142 L19.4091429,180.976427" id="path-43"></path>
        <linearGradient x1="50%" y1="100%" x2="50%" y2="-0.000106815924%" id="linearGradient-45">
            <stop stop-color="#ED92A9" offset="0%"></stop>
            <stop stop-color="#ED92A9" offset="100%"></stop>
        </linearGradient>
        <linearGradient x1="-26.4811032%" y1="478.16052%" x2="-26.4811032%" y2="-64.7477383%" id="linearGradient-46">
            <stop stop-color="#CE7C93" offset="0%"></stop>
            <stop stop-color="#CE7C93" offset="100%"></stop>
        </linearGradient>
    </defs>
    <g id="Page-1" stroke="none" stroke-width="1" fill="none" fill-rule="evenodd">
        <g id="courses_books">
            <g id="25549-NVP68S">
                <path d="M377.664429,189.130388 C377.664429,293.428848 293.266286,377.97668 189.162,377.97668 C85.0596429,377.97668 0.667285714,293.428848 0.667285714,189.130388 C0.667285714,84.8319282 85.0596429,0.282163546 189.162,0.282163546 C293.266286,0.282163546 377.664429,84.8319282 377.664429,189.130388" id="Fill-230" fill="#94CDAD"></path>
                <path d="M352.980643,282.604839 C368.685,255.042455 377.664429,223.138487 377.664429,189.130388 C377.664429,181.832587 377.2305,174.633327 376.428214,167.549997 L292.728214,97.116656 L202.1085,276.659557 L93.5800714,324.254665 L189.162,377.97668 C189.162,377.97668 202.010143,378.34186 219.963214,375.4552 C254.428714,369.909876 288.981,353.157975 315.136286,329.602908 L352.980643,282.604839" id="Fill-231" fill="#5C9971"></path>
                <path d="M291.767786,282.873411 C291.767786,282.873411 283.156714,299.681345 292.751357,318.608868 L94.5675,318.608868 L93.5800714,280.392506 L291.767786,282.873411" id="Fill-232" fill="#E7E6E6"></path>
                <g id="Group-242" transform="translate(93.450498, 280.164443)">
                    <mask id="mask-2" fill="white">
                        <use xlink:href="#path-1"></use>
                    </mask>
                    <g id="Clip-234"></g>
                    <polygon id="Fill-233" fill="#D0D1D1" mask="url(#mask-2)" points="0.12957309 6.23903926 197.914216 6.23903926 197.914216 4.67977922 0.12957309 4.67977922"></polygon>
                    <polygon id="Fill-235" fill="#D0D1D1" mask="url(#mask-2)" points="0.12957309 9.35369501 197.914216 9.35369501 197.914216 7.79636713 0.12957309 7.79636713"></polygon>
                    <polygon id="Fill-236" fill="#D0D1D1" mask="url(#mask-2)" points="0.12957309 14.0314751 197.914216 14.0314751 197.914216 12.4702829 0.12957309 12.4702829"></polygon>
                    <polygon id="Fill-237" fill="#D0D1D1" mask="url(#mask-2)" points="0.12957309 18.7034587 197.914216 18.7034587 197.914216 17.1441987 0.12957309 17.1441987"></polygon>
                    <polygon id="Fill-238" fill="#D0D1D1" mask="url(#mask-2)" points="0.12957309 21.8200467 197.914216 21.8200467 197.914216 20.2607866 0.12957309 20.2607866"></polygon>
                    <polygon id="Fill-239" fill="#D0D1D1" mask="url(#mask-2)" points="0.12957309 24.9347024 197.914216 24.9347024 197.914216 23.3773745 0.12957309 23.3773745"></polygon>
                    <polygon id="Fill-240" fill="#D0D1D1" mask="url(#mask-2)" points="0.12957309 29.606686 197.914216 29.606686 197.914216 28.0493581 0.12957309 28.0493581"></polygon>
                    <polygon id="Fill-241" fill="#D0D1D1" mask="url(#mask-2)" points="0.12957309 34.282534 197.914216 34.282534 197.914216 32.7232739 0.12957309 32.7232739"></polygon>
                </g>
                <path d="M96.2260714,296.220831 C96.2260714,294.702147 96.2260714,292.999906 96.2260714,291.150821 C96.2260714,282.146915 103.506429,282.873411 103.506429,282.873411 L295.738714,282.873411 L295.738714,272.532444 L101.521929,272.532444 C97.4449286,272.532444 94.6118571,273.714932 92.6466429,275.430697 L92.6466429,275.428765 L92.6350714,275.436494 L92.1413571,275.89635 L92.0931429,275.946586 L91.8289286,276.211293 C88.1569286,279.93265 73.9337143,296.810143 90.3034286,320.670492 C92.1047143,323.781284 95.4257143,326.420626 101.521929,326.420626 L295.738714,326.420626 L295.738714,316.075795 L103.506429,316.075795 C103.506429,316.075795 96.2260714,316.806155 96.2260714,307.806114 C96.2260714,305.953164 96.2260714,304.254788 96.2260714,302.732239 C96.2260714,302.732239 96.2260714,300.135405 96.2260714,296.220831" id="Fill-243" fill="#EF0F44"></path>
                <path d="M85.5012857,257.818981 L127.715786,273.141078 L202.1085,67.4327502 C202.1085,67.4327502 185.194929,48.1825547 159.766714,52.4758333 L85.5012857,257.818981" id="Fill-244" fill="#FBAA3E"></path>
                <path d="M147.562714,120.215731 L168.0345,127.64492 L187.206429,74.6262138 L166.7385,67.1970256 L147.562714,120.215731 M169.943786,131.733388 L143.481857,122.128578 L164.829214,63.1085569 L191.285357,72.7152991 L169.943786,131.733388" id="Fill-245" fill="#524938"></path>
                <polyline id="Fill-246" fill="#524938" points="103.091786 209.194026 145.294714 224.519988 149.095929 214.014787 106.889143 198.694622 103.091786 209.194026"></polyline>
                <polyline id="Fill-247" fill="#524938" points="97.6647857 224.20118 139.8735 239.525209 143.670857 229.02194 101.464071 213.701776 97.6647857 224.20118"></polyline>
                <g id="Group-250" transform="translate(84.857143, 257.722515)">
                    <mask id="mask-4" fill="white">
                        <use xlink:href="#path-3"></use>
                    </mask>
                    <g id="Clip-249"></g>
                    <polyline id="Fill-248" fill="url(#linearGradient-5)" mask="url(#mask-4)" points="15.4960714 5.99344427 0.644142857 0.303207814 0.709714286 0.119651799 15.6561429 5.54518116 15.4960714 5.99344427"></polyline>
                </g>
                <g id="Group-253" transform="translate(84.857143, 208.674206)">
                    <mask id="mask-7" fill="white">
                        <use xlink:href="#path-6"></use>
                    </mask>
                    <g id="Clip-252"></g>
                    <path d="M15.6561429,54.59349 L0.709714286,49.1679607 L12.8577857,15.5462953 L27.6807857,20.9273848 L15.6561429,54.59349 M31.4357143,10.4105912 L16.6532143,5.04302692 L18.2809286,0.537209798 L33.0460714,5.89897759 L31.4357143,10.4105912" id="Fill-251" fill="url(#linearGradient-8)" mask="url(#mask-7)"></path>
                </g>
                <g id="Group-256" transform="translate(159.766021, 51.289482)">
                    <mask id="mask-10" fill="white">
                        <use xlink:href="#path-9"></use>
                    </mask>
                    <g id="Clip-255"></g>
                    <path d="M0.000692887225,1.4036438 C0.000692887225,1.4036438 0.49055003,1.18292676 2.38826432,0.949226372 C1.60140717,1.07126991 0.804907173,1.22187683 0.000692887225,1.4036438 M11.2384786,0.796022784 C10.0524072,0.653205879 8.83740717,0.575305749 7.59733574,0.564919065 C7.60505003,0.564919065 7.61276432,0.564919065 7.6204786,0.564919065 C7.79405003,0.557129052 7.9714786,0.554532381 8.15276432,0.554532381 C9.1324786,0.554532381 10.2086215,0.653205879 11.2384786,0.796022784" id="Fill-254" fill="url(#linearGradient-11)" mask="url(#mask-10)"></path>
                </g>
                <g id="Group-259" transform="translate(106.815523, 51.289482)">
                    <mask id="mask-13" fill="white">
                        <use xlink:href="#path-12"></use>
                    </mask>
                    <g id="Clip-258"></g>
                    <path d="M14.8445484,152.766908 L0.116048369,147.420598 L52.9511912,1.18635151 C53.7554055,1.0510997 54.5519055,0.939033928 55.3387627,0.848222004 C56.4881912,0.743884901 58.1564055,0.63761563 60.5478341,0.562261055 C61.7879055,0.56998973 63.0029055,0.627954787 64.1889769,0.734224059 C66.6729769,0.985405973 68.8946912,1.41627957 68.8946912,1.41627957 L64.3567627,14.1222201 L58.0136912,11.8190752 L36.6663341,70.8390965 L43.2504769,73.2272568 L14.8445484,152.766908 M44.3227627,70.2246669 L40.7471912,68.9262496 L59.9229769,15.9075439 L63.2844769,17.1286744 L44.3227627,70.2246669" id="Fill-257" fill="url(#linearGradient-14)" mask="url(#mask-13)"></path>
                </g>
                <g id="Group-262" transform="translate(143.458380, 62.882493)">
                    <mask id="mask-16" fill="white">
                        <use xlink:href="#path-15"></use>
                    </mask>
                    <g id="Clip-261"></g>
                    <polyline id="Fill-260" fill="url(#linearGradient-17)" mask="url(#mask-16)" points="6.6076198 61.6342454 0.0234769404 59.246085 21.3708341 0.226063723 27.7139055 2.52920866 26.6416198 5.53566297 23.2801198 4.31453243 4.10433408 57.3332381 7.67990551 58.6316554 6.6076198 61.6342454"></polyline>
                </g>
                <g id="Group-265" transform="translate(103.093355, 198.134293)">
                    <mask id="mask-19" fill="white">
                        <use xlink:href="#path-18"></use>
                    </mask>
                    <g id="Clip-264"></g>
                    <polyline id="Fill-263" fill="url(#linearGradient-20)" mask="url(#mask-19)" points="14.8098588 16.4388902 0.0447159468 11.0771224 3.83821595 0.575786235 18.5667159 5.92209668 14.8098588 16.4388902"></polyline>
                </g>
                <g id="Group-268" transform="translate(97.307641, 213.591642)">
                    <mask id="mask-22" fill="white">
                        <use xlink:href="#path-21"></use>
                    </mask>
                    <g id="Clip-267"></g>
                    <polyline id="Fill-266" fill="url(#linearGradient-23)" mask="url(#mask-22)" points="15.2302874 16.0099488 0.407287375 10.6288593 4.20271595 0.125590957 18.9852159 5.49315526 15.2302874 16.0099488"></polyline>
                </g>
                <path d="M241.376143,272.532444 L190.020214,272.532444 L190.020214,96.7224936 C190.020214,96.7224936 215.699143,84.1460084 241.376143,97.116656 L241.376143,272.532444" id="Fill-269" fill="#961C45"></path>
                <polygon id="Fill-270" fill="#600B2C" points="190.020214 235.533348 241.376143 235.533348 241.376143 222.753985 190.020214 222.753985"></polygon>
                <polygon id="Fill-271" fill="#600B2C" points="190.020214 253.790409 241.376143 253.790409 241.376143 241.009114 190.020214 241.009114"></polygon>
                <polygon id="Fill-272" fill="#600B2C" points="190.020214 125.994848 241.376143 125.994848 241.376143 113.217417 190.020214 113.217417"></polygon>
                <polygon id="Fill-273" fill="#600B2C" points="190.020214 144.251908 241.376143 144.251908 241.376143 131.474478 190.020214 131.474478"></polygon>
                <g id="Group-276" transform="translate(189.879070, 125.590957)">
                    <mask id="mask-25" fill="white">
                        <use xlink:href="#path-24"></use>
                    </mask>
                    <g id="Clip-275"></g>
                    <path d="M0.141144518,146.941487 L19.2436445,146.941487 L19.2436445,128.199452 L0.141144518,128.199452 L0.141144518,146.941487 Z M0.141144518,115.418157 L19.2436445,115.418157 L19.2436445,109.942391 L0.141144518,109.942391 L0.141144518,115.418157 Z M0.141144518,97.1630281 L19.2436445,97.1630281 L19.2436445,18.660951 L0.141144518,18.660951 L0.141144518,97.1630281 Z M0.141144518,5.88352025 L19.2436445,5.88352025 L19.2436445,0.403890166 L0.141144518,0.403890166 L0.141144518,5.88352025 Z" id="Fill-274" fill="url(#linearGradient-26)" mask="url(#mask-25)"></path>
                </g>
                <g id="Group-279" transform="translate(191.672666, 92.609116)">
                    <mask id="mask-28" fill="white">
                        <use xlink:href="#path-27"></use>
                    </mask>
                    <g id="Clip-278"></g>
                    <path d="M0.123762655,3.34050988 L0.137262655,3.30186651 C0.501762655,3.1608182 0.939548369,3.00044821 1.4641198,2.81882436 C0.958834083,3.00624472 0.511405512,3.18207206 0.123762655,3.34050988 M7.42726265,0.923366992 C8.49569123,0.608423514 9.74154837,0.322462565 10.9816198,0.0751449877 C9.72033408,0.341784251 8.53040551,0.6277452 7.42726265,0.923366992" id="Fill-277" fill="url(#linearGradient-29)" mask="url(#mask-28)"></path>
                </g>
                <g id="Group-282" transform="translate(189.879070, 94.676260)">
                    <mask id="mask-31" fill="white">
                        <use xlink:href="#path-30"></use>
                    </mask>
                    <g id="Clip-281"></g>
                    <path d="M0.141144518,2.04623346 C0.141144518,2.04623346 0.366787375,1.83176274 1.9308588,1.23472265 L1.9173588,1.27336603 C0.766001661,1.73901865 0.141144518,2.04623346 0.141144518,2.04623346" id="Fill-280" fill="url(#linearGradient-32)" mask="url(#mask-31)"></path>
                </g>
                <g id="Group-285" transform="translate(189.879070, 91.556018)">
                    <mask id="mask-34" fill="white">
                        <use xlink:href="#path-33"></use>
                    </mask>
                    <g id="Clip-284"></g>
                    <path d="M19.2436445,21.6613992 L0.141144518,21.6613992 L0.141144518,5.16647612 C0.141144518,5.16647612 0.766001661,4.85926131 1.9173588,4.39360869 C2.30500166,4.23517086 2.75243023,4.05934352 3.25771595,3.87192317 C4.58264452,3.40820271 6.46107309,2.79763744 9.12057309,2.00544833 C9.1533588,1.99578749 9.18614452,1.98612664 9.2208588,1.9764658 C10.3240017,1.68084401 11.5139302,1.39488306 12.7752159,1.1282438 C16.0210017,0.480967323 19.2436445,0.0887371019 19.2436445,0.0887371019 L19.2436445,21.6613992" id="Fill-283" fill="url(#linearGradient-35)" mask="url(#mask-34)"></path>
                </g>
                <polygon id="Fill-286" fill="url(#linearGradient-36)" points="190.020214 235.533348 209.122714 235.533348 209.122714 222.753985 190.020214 222.753985"></polygon>
                <polygon id="Fill-288" fill="url(#linearGradient-37)" points="190.020214 253.790409 209.122714 253.790409 209.122714 241.009114 190.020214 241.009114"></polygon>
                <polygon id="Fill-290" fill="url(#linearGradient-38)" points="190.020214 125.994848 209.122714 125.994848 209.122714 113.217417 190.020214 113.217417"></polygon>
                <polygon id="Fill-292" fill="url(#linearGradient-39)" points="190.020214 144.251908 209.122714 144.251908 209.122714 131.474478 190.020214 131.474478"></polygon>
                <path d="M292.728214,272.532444 L241.376143,272.532444 L241.376143,96.7224936 C241.376143,96.7224936 267.055071,84.1460084 292.728214,97.116656 L292.728214,272.532444" id="Fill-294" fill="#E3496F"></path>
                <polygon id="Fill-295" fill="#AD274D" points="252.928286 146.535732 281.176071 146.535732 281.176071 113.217417 252.928286 113.217417"></polygon>
                <g id="Group-298" transform="translate(241.071429, 92.609116)">
                    <mask id="mask-41" fill="white">
                        <use xlink:href="#path-40"></use>
                    </mask>
                    <g id="Clip-297"></g>
                    <path d="M0.304714286,4.11337731 C0.304714286,4.11337731 0.648,3.78877299 3.39621429,2.82655304 C1.41171429,3.57043794 0.304714286,4.11337731 0.304714286,4.11337731 M9.38442857,0.923366992 C10.449,0.610355683 11.6871429,0.326326902 12.9214286,0.0790093248 C11.6659286,0.34371642 10.4837143,0.629677369 9.38442857,0.923366992" id="Fill-296" fill="url(#linearGradient-42)" mask="url(#mask-41)"></path>
                </g>
                <g id="Group-301" transform="translate(241.071429, 91.556018)">
                    <mask id="mask-44" fill="white">
                        <use xlink:href="#path-43"></use>
                    </mask>
                    <g id="Clip-300"></g>
                    <path d="M19.4091429,180.976427 L0.304714286,180.976427 L0.304714286,5.16647612 C0.304714286,5.16647612 1.41171429,4.62353675 3.39621429,3.87965185 C4.72114286,3.41593139 6.60728571,2.80343395 9.28414286,2.00544833 C9.31885714,1.99578749 9.35164286,1.98612664 9.38442857,1.9764658 C10.4837143,1.68277618 11.6659286,1.39681523 12.9214286,1.13210813 C16.1749286,0.482899491 19.4091429,0.0887371019 19.4091429,0.0887371019 L19.4091429,21.6613992 L11.8568571,21.6613992 L11.8568571,54.9797142 L19.4091429,54.9797142 L19.4091429,180.976427" id="Fill-299" fill="url(#linearGradient-45)" mask="url(#mask-44)"></path>
                </g>
                <polygon id="Fill-302" fill="url(#linearGradient-46)" points="252.928286 146.535732 260.480571 146.535732 260.480571 113.217417 252.928286 113.217417"></polygon>
            </g>
        </g>
    </g>
</svg>