<?xml version="1.0" encoding="UTF-8"?>
<svg width="99px" height="101px" viewBox="0 0 99 101" version="1.1" xmlns="http://www.w3.org/2000/svg" xmlns:xlink="http://www.w3.org/1999/xlink">
    <!-- Generator: Sketch 57.1 (83088) - https://sketch.com -->
    <title>lightning-icon</title>
    <desc>Created with Sketch.</desc>
    <g id="Page-1" stroke="none" stroke-width="1" fill="none" fill-rule="evenodd">
        <g id="lightning-icon" transform="translate(-0.000000, 0.000000)">
            <path d="M96.005,23.997 L88.781,23.997 C88.587,22.634 88.243,21.322 87.744,20.083 L93.989,16.478 C95.138,15.814 95.53,14.345 94.869,13.198 C94.201,12.049 92.736,11.655 91.59,12.318 L85.336,15.928 C84.499,14.864 83.538,13.902 82.474,13.067 L86.083,6.814 C86.748,5.667 86.351,4.199 85.205,3.535 C84.052,2.869 82.587,3.266 81.927,4.414 L78.321,10.663 C77.081,10.165 75.771,9.818 74.409,9.624 L74.409,2.4 C74.409,1.074 73.337,2.95585778e-12 72.01,2.95585778e-12 C70.685,2.95585778e-12 69.608,1.074 69.608,2.4 L69.608,9.624 C68.248,9.819 66.934,10.167 65.696,10.666 L62.09,4.416 C61.425,3.267 59.95,2.874 58.808,3.535 C57.662,4.2 57.267,5.667 57.928,6.815 L61.541,13.07 C61.166,13.367 60.82,13.696 60.473,14.019 C66.117,18.785 69.822,25.78 70.155,33.647 C75.109,34.078 79.617,36.045 83.246,39.039 C84,38.369 84.71,37.656 85.336,36.863 L91.592,40.475 C91.969,40.694 92.379,40.797 92.788,40.797 C93.619,40.797 94.427,40.368 94.872,39.598 C95.532,38.448 95.138,36.982 93.991,36.318 L87.744,32.709 C88.243,31.473 88.587,30.16 88.781,28.797 L96.005,28.797 C97.328,28.797 98.404,27.723 98.404,26.396 C98.404,25.072 97.328,23.997 96.005,23.997" id="Fill-100-Copy" fill="#E3BC51"></path>
            <path d="M68.072,38.152 C67.124,38.152 66.198,38.223 65.28,38.37 C65.472,37.208 65.588,36.035 65.588,34.812 C65.588,22.314 55.461,12.174 42.95,12.174 C30.788,12.174 20.881,21.798 20.369,33.85 C9.017,34.428 1.98951966e-13,43.781 1.98951966e-13,55.271 C1.98951966e-13,63.301 4.408,70.288 10.933,73.974 L17.623,54.638 C18.835,51.148 22.391,48.614 26.085,48.614 L35.172,48.614 C37.685,48.614 39.875,49.802 41.034,51.793 C42.194,53.784 42.144,56.275 40.901,58.461 L36.449,66.311 L40.914,66.311 C43.638,66.311 45.863,67.627 46.862,69.828 C47.866,72.031 47.395,74.572 45.606,76.626 L45.495,76.753 L68.072,76.753 C78.728,76.753 87.377,68.112 87.377,57.45 C87.377,46.794 78.728,38.152 68.072,38.152" id="Fill-101-Copy" fill="#7F9A9E"></path>
            <path d="M40.914,71.231 L30.868,71.231 C29.29,71.231 28.637,70.108 29.415,68.736 L36.624,56.029 C37.404,54.657 36.752,53.535 35.172,53.535 L26.085,53.535 C24.505,53.535 22.792,54.755 22.276,56.247 L15.544,75.692 C15.03,77.183 15.899,78.406 17.475,78.406 L24.651,78.406 C26.227,78.406 27.002,79.587 26.368,81.036 L18.626,98.735 C17.993,100.179 18.325,100.39 19.366,99.202 L41.895,73.392 C42.932,72.203 42.49,71.231 40.914,71.231" id="Fill-102-Copy" fill="#BD9C3F"></path>
            <path d="M46.687,80.872 C45.059,80.368 43.342,81.281 42.841,82.903 L38.655,96.434 C38.153,98.055 39.062,99.778 40.686,100.28 C40.988,100.374 41.294,100.417 41.594,100.417 C42.908,100.417 44.122,99.57 44.532,98.25 L48.716,84.718 C49.219,83.097 48.311,81.374 46.687,80.872" id="Fill-103-Copy" fill="#47B6BB"></path>
            <path d="M63.066,80.872 C61.438,80.368 59.723,81.281 59.22,82.903 L55.036,96.434 C54.532,98.055 55.441,99.778 57.065,100.28 C57.368,100.374 57.673,100.417 57.973,100.417 C59.287,100.417 60.504,99.57 60.911,98.25 L65.097,84.718 C65.599,83.097 64.692,81.374 63.066,80.872" id="Fill-104-Copy" fill="#47B6BB"></path>
        </g>
    </g>
</svg>