<?xml version="1.0" encoding="UTF-8"?>
<svg width="443px" height="482px" viewBox="0 0 443 482" version="1.1" xmlns="http://www.w3.org/2000/svg" xmlns:xlink="http://www.w3.org/1999/xlink">
    <!-- Generator: Sketch 57.1 (83088) - https://sketch.com -->
    <title>school_bus</title>
    <desc>Created with Sketch.</desc>
    <g id="Page-1" stroke="none" stroke-width="1" fill="none" fill-rule="evenodd">
        <g id="school_bus">
            <g id="313958-P8Q3V4-393">
                <path d="M389.289299,403.235601 L52.9516294,403.235601 L52.9516294,67.1509082 C52.9516294,30.2294308 82.7918148,0.29951591 119.600969,0.29951591 L322.639959,0.29951591 C359.450747,0.29951591 389.289299,30.2294308 389.289299,67.1509082 L389.289299,403.235601" id="Fill-95" fill="#ED9A44"></path>
                <path d="M95.1426308,481.955781 L51.034673,481.955781 C44.539228,481.955781 39.2733129,476.674031 39.2733129,470.159054 L39.2733129,409.863583 L106.903991,409.863583 L106.903991,470.159054 C106.903991,476.674031 101.639709,481.955781 95.1426308,481.955781" id="Fill-96" fill="#1F2024"></path>
                <polygon id="Fill-97" fill="#48484E" points="86.8918808 481.955781 90.4612731 481.955781 90.4612731 409.861945 86.8918808 409.861945"></polygon>
                <polygon id="Fill-98" fill="#48484E" points="76.4318957 481.955781 80.001288 481.955781 80.001288 409.861945 76.4318957 409.861945"></polygon>
                <path d="M97.350233,481.741235 C98.6254825,481.498848 99.8256213,481.048466 100.919625,480.427758 L100.919625,409.861945 L97.350233,409.861945 L97.350233,481.741235" id="Fill-99" fill="#48484E"></path>
                <path d="M45.055206,480.304927 C46.1459444,480.953477 47.3444504,481.436613 48.6245984,481.705205 L48.6245984,409.861945 L45.055206,409.861945 L45.055206,480.304927" id="Fill-100" fill="#48484E"></path>
                <polygon id="Fill-101" fill="#48484E" points="65.9735434 481.955781 69.5429358 481.955781 69.5429358 409.861945 65.9735434 409.861945"></polygon>
                <polygon id="Fill-102" fill="#48484E" points="55.5135583 481.955781 59.0829507 481.955781 59.0829507 409.861945 55.5135583 409.861945"></polygon>
                <path d="M97.4204452,390.054974 L34.5870567,390.054974 L34.5870567,313.034781 C34.5870567,301.614737 43.8175119,292.356526 55.2033183,292.356526 L97.4204452,292.356526 L97.4204452,390.054974" id="Fill-103" fill="#E87F35"></path>
                <path d="M97.4204452,390.054974 L34.5870567,390.054974 L34.5870567,331.787039 C34.5870567,323.857045 40.9992268,317.425593 48.90708,317.425593 L83.1020548,317.425593 C91.009908,317.425593 97.4204452,323.857045 97.4204452,331.787039 L97.4204452,390.054974" id="Fill-104" fill="#ED9A44"></path>
                <path d="M89.3297137,350.642476 C89.3297137,363.5627 78.886057,374.036123 66.0045674,374.036123 C53.1214449,374.036123 42.6794211,363.5627 42.6794211,350.642476 C42.6794211,337.720614 53.1214449,327.247191 66.0045674,327.247191 C78.886057,327.247191 89.3297137,337.720614 89.3297137,350.642476" id="Fill-105" fill="#2C2D34"></path>
                <path d="M85.1300444,350.642476 C85.1300444,361.237093 76.5674215,369.825463 66.0045674,369.825463 C55.4417133,369.825463 46.8790904,361.237093 46.8790904,350.642476 C46.8790904,340.047859 55.4417133,331.459489 66.0045674,331.459489 C76.5674215,331.459489 85.1300444,340.047859 85.1300444,350.642476" id="Fill-106" fill="#FFFFFE"></path>
                <path d="M66.0045674,345.013523 C57.8240296,345.013523 50.8615918,350.174079 48.1298473,357.419493 C50.8615918,364.664907 57.8240296,369.825463 66.0045674,369.825463 C74.1851052,369.825463 81.1459102,364.664907 83.8776547,357.419493 C81.1459102,350.174079 74.1851052,345.013523 66.0045674,345.013523" id="Fill-107" fill="#E9D1BD"></path>
                <path d="M346.71458,481.955781 L390.822538,481.955781 C397.317983,481.955781 402.583898,476.674031 402.583898,470.159054 L402.583898,409.863583 L334.951587,409.863583 L334.951587,470.159054 C334.951587,476.674031 340.217502,481.955781 346.71458,481.955781" id="Fill-108" fill="#1F2024"></path>
                <polygon id="Fill-109" fill="#48484E" points="351.395937 481.955781 354.96533 481.955781 354.96533 409.861945 351.395937 409.861945"></polygon>
                <polygon id="Fill-110" fill="#48484E" points="361.855923 481.955781 365.425315 481.955781 365.425315 409.861945 361.855923 409.861945"></polygon>
                <path d="M344.506978,481.741235 C343.231728,481.498848 342.031589,481.048466 340.937585,480.427758 L340.937585,409.861945 L344.506978,409.861945 L344.506978,481.741235" id="Fill-111" fill="#48484E"></path>
                <path d="M396.802005,480.304927 C395.711266,480.953477 394.51276,481.436613 393.232612,481.705205 L393.232612,409.861945 L396.802005,409.861945 L396.802005,480.304927" id="Fill-112" fill="#48484E"></path>
                <polygon id="Fill-113" fill="#48484E" points="372.314275 481.955781 375.883667 481.955781 375.883667 409.861945 372.314275 409.861945"></polygon>
                <polygon id="Fill-114" fill="#48484E" points="382.77426 481.955781 386.343652 481.955781 386.343652 409.861945 382.77426 409.861945"></polygon>
                <path d="M344.436765,390.054974 L407.270154,390.054974 L407.270154,313.034781 C407.270154,301.614737 398.039699,292.356526 386.653892,292.356526 L344.436765,292.356526 L344.436765,390.054974" id="Fill-115" fill="#E87F35"></path>
                <path d="M344.436765,390.054974 L407.270154,390.054974 L407.270154,331.787039 C407.270154,323.857045 400.859617,317.425593 392.950131,317.425593 L358.755156,317.425593 C350.847303,317.425593 344.436765,323.857045 344.436765,331.787039 L344.436765,390.054974" id="Fill-116" fill="#ED9A44"></path>
                <path d="M352.52913,350.642476 C352.52913,363.5627 362.971154,374.036123 375.852643,374.036123 C388.734133,374.036123 399.17779,363.5627 399.17779,350.642476 C399.17779,337.720614 388.734133,327.247191 375.852643,327.247191 C362.971154,327.247191 352.52913,337.720614 352.52913,350.642476" id="Fill-117" fill="#2C2D34"></path>
                <path d="M356.727166,350.642476 C356.727166,361.237093 365.289789,369.825463 375.852643,369.825463 C386.415497,369.825463 394.979753,361.237093 394.979753,350.642476 C394.979753,340.047859 386.415497,331.459489 375.852643,331.459489 C365.289789,331.459489 356.727166,340.047859 356.727166,350.642476" id="Fill-118" fill="#FFFFFE"></path>
                <path d="M375.852643,345.013523 C384.033181,345.013523 390.993986,350.174079 393.727363,357.419493 C390.993986,364.664907 384.033181,369.825463 375.852643,369.825463 C367.672105,369.825463 360.7113,364.664907 357.977923,357.419493 C360.7113,350.174079 367.672105,345.013523 375.852643,345.013523" id="Fill-119" fill="#E9D1BD"></path>
                <polygon id="Fill-120" fill="#E87F35" points="96.8669118 390.054974 344.585354 390.054974 344.585354 258.63194 96.8669118 258.63194"></polygon>
                <path d="M344.585354,390.054974 L96.8669118,390.054974 L96.8669118,325.430924 C96.8669118,307.16344 111.631068,292.356526 129.842154,292.356526 L311.610112,292.356526 C329.822831,292.356526 344.585354,307.16344 344.585354,325.430924 L344.585354,390.054974" id="Fill-121" fill="#ED9A44"></path>
                <path d="M339.118599,390.054974 L102.335299,390.054974 L102.335299,328.283888 C102.335299,310.823816 116.446319,296.668726 133.854046,296.668726 L307.59822,296.668726 C325.00758,296.668726 339.118599,310.823816 339.118599,328.283888 L339.118599,390.054974" id="Fill-122" fill="#F4B64E"></path>
                <polygon id="Fill-123" fill="#2C2D34" points="28.5553388 430.145501 414.281577 430.145501 414.281577 382.316597 28.5553388 382.316597"></polygon>
                <path d="M360.288394,269.711331 L81.9541669,269.711331 C70.8655377,269.711331 61.8751103,260.69387 61.8751103,249.571897 L61.8751103,108.823504 C61.8751103,97.6998933 70.8655377,88.6840694 81.9541669,88.6840694 L360.288394,88.6840694 C371.377024,88.6840694 380.367451,97.6998933 380.367451,108.823504 L380.367451,249.571897 C380.367451,260.69387 371.377024,269.711331 360.288394,269.711331" id="Fill-124" fill="#E87F35"></path>
                <path d="M350.17947,71.7726439 L92.063091,71.7726439 C90.1363376,71.7726439 88.5737079,70.2053154 88.5737079,68.2727682 L88.5737079,37.9088491 C88.5737079,35.9746642 90.1363376,34.4089735 92.063091,34.4089735 L350.17947,34.4089735 C352.106224,34.4089735 353.668853,35.9746642 353.668853,37.9088491 L353.668853,68.2727682 C353.668853,70.2053154 352.106224,71.7726439 350.17947,71.7726439" id="Fill-125" fill="#E87F35"></path>
                <polygon id="Fill-126" fill="#2C2D34" points="93.8004348 66.5302003 348.442127 66.5302003 348.442127 39.6514171 93.8004348 39.6514171"></polygon>
                <path d="M81.9541669,262.488846 C73.9744686,262.488846 67.4822893,255.977144 67.4822893,247.973451 L67.4822893,108.823504 C67.4822893,100.819811 73.9744686,94.3081092 81.9541669,94.3081092 L360.288394,94.3081092 C368.268093,94.3081092 374.760272,100.819811 374.760272,108.823504 L374.760272,247.973451 C374.760272,255.977144 368.268093,262.488846 360.288394,262.488846 L81.9541669,262.488846" id="Fill-127" fill="#2C2D34"></path>
                <path d="M369.153093,245.543027 L73.0894683,245.543027 L73.0894683,108.823504 C73.0894683,103.911886 77.0572741,99.932149 81.9541669,99.932149 L360.286762,99.932149 C365.183654,99.932149 369.153093,103.911886 369.153093,108.823504 L369.153093,245.543027" id="Fill-128" fill="#00A9C1"></path>
                <path d="M73.0894683,155.910507 L73.0894683,245.543027 L369.153093,245.543027 L369.153093,217.842093 C292.701803,234.674906 188.049701,232.052865 73.0894683,155.910507" id="Fill-129" fill="#0B7B90"></path>
                <path d="M182.21719,209.003146 C159.474968,201.782298 135.996335,192.009833 111.947839,179.150205 L190.928401,99.932149 L290.961194,99.932149 L182.21719,209.003146" id="Fill-130" fill="#5FC1CC"></path>
                <path d="M145.785222,245.543027 L73.0894683,245.543027 L73.0894683,218.125424 L111.947839,179.150205 C135.996335,192.009833 159.474968,201.782298 182.21719,209.003146 L145.785222,245.543027" id="Fill-131" fill="#78ACB4"></path>
                <path d="M208.540234,216.332085 C206.886165,215.93575 205.215768,215.523036 203.553535,215.100496 L318.376609,99.932149 L324.592838,99.932149 L208.540234,216.332085" id="Fill-132" fill="#5FC1CC"></path>
                <path d="M179.416866,245.543027 L173.200637,245.543027 L203.553535,215.100496 C205.215768,215.523036 206.886165,215.93575 208.540234,216.332085 L179.416866,245.543027" id="Fill-133" fill="#78ACB4"></path>
                <path d="M292.084589,226.281428 C285.58098,226.281428 278.958173,226.101275 272.232497,225.722955 L369.153093,128.510919 L369.153093,167.525443 L311.082704,225.770449 C304.863209,226.104551 298.532682,226.281428 292.084589,226.281428" id="Fill-134" fill="#5FC1CC"></path>
                <path d="M291.367771,245.543027 L252.471845,245.543027 L272.232497,225.722955 C278.958173,226.101275 285.58098,226.281428 292.084589,226.281428 C298.532682,226.281428 304.863209,226.104551 311.082704,225.770449 L291.367771,245.543027" id="Fill-135" fill="#78ACB4"></path>
                <polygon id="Fill-136" fill="#2C2D34" points="217.636796 253.443542 224.605765 253.443542 224.605765 97.0775476 217.636796 97.0775476"></polygon>
                <path d="M291.700871,306.749089 L149.75466,306.749089 C128.276258,306.749089 110.865265,324.212437 110.865265,345.755425 L110.865265,382.316597 L330.590266,382.316597 L330.590266,345.755425 C330.590266,324.212437 313.17764,306.749089 291.700871,306.749089" id="Fill-137" fill="#1F2024"></path>
                <path d="M117.416227,375.745936 L117.416227,345.755425 C117.416227,327.871174 131.922394,313.321387 149.753028,313.321387 L291.699238,313.321387 C309.529872,313.321387 324.037672,327.871174 324.037672,345.755425 L324.037672,375.745936 L117.416227,375.745936" id="Fill-138" fill="#2C2D34"></path>
                <polygon id="Fill-139" fill="#48484E" points="117.416227 357.272095 324.037672 357.272095 324.037672 354.16528 117.416227 354.16528"></polygon>
                <polygon id="Fill-140" fill="#48484E" points="117.416227 364.866351 324.037672 364.866351 324.037672 361.759535 117.416227 361.759535"></polygon>
                <polygon id="Fill-141" fill="#48484E" points="117.416227 349.67784 324.037672 349.67784 324.037672 346.572663 117.416227 346.572663"></polygon>
                <polygon id="Fill-142" fill="#48484E" points="117.416227 372.458968 324.037672 372.458968 324.037672 369.353791 117.416227 369.353791"></polygon>
                <path d="M120.806007,331.382514 C120.306357,332.39137 119.862224,333.426429 119.468709,334.490967 L321.985189,334.490967 C321.591675,333.426429 321.145909,332.39137 320.646259,331.382514 L120.806007,331.382514" id="Fill-143" fill="#48484E"></path>
                <path d="M126.029468,323.789897 C125.123241,324.772548 124.275796,325.805969 123.495297,326.896712 L317.958601,326.896712 C317.178103,325.805969 316.330658,324.772548 315.424431,323.789897 L126.029468,323.789897" id="Fill-144" fill="#48484E"></path>
                <path d="M136.512313,316.195642 C134.603521,317.058737 132.795965,318.100347 131.105973,319.302457 L310.347925,319.302457 C308.656301,318.100347 306.848745,317.058737 304.941586,316.195642 L136.512313,316.195642" id="Fill-145" fill="#48484E"></path>
                <path d="M118.137943,338.978407 C117.920775,339.995451 117.755858,341.033786 117.638293,342.085223 L323.815605,342.085223 C323.698041,341.033786 323.533124,339.995451 323.315956,338.978407 L118.137943,338.978407" id="Fill-146" fill="#48484E"></path>
                <polygon id="Fill-147" fill="#FFFFFE" points="169.903929 439.374233 271.548337 439.374233 271.548337 398.839875 169.903929 398.839875"></polygon>
                <path d="M271.548337,406.669966 C249.878892,418.910524 212.245152,434.583809 169.903929,427.63319 L169.903929,439.374233 L271.548337,439.374233 L271.548337,406.669966" id="Fill-148" fill="#C0BFBB"></path>
                <polyline id="Fill-149" fill="#ED9A44" points="174.802455 434.460977 175.618876 434.460977 175.618876 404.572006 265.83339 404.572006 265.83339 433.642101 174.802455 433.642101 174.802455 434.460977 175.618876 434.460977 174.802455 434.460977 174.802455 435.279853 267.466232 435.279853 267.466232 402.934254 173.986034 402.934254 173.986034 435.279853 174.802455 435.279853 174.802455 434.460977"></polyline>
                <path d="M20.549515,125.523659 L20.549515,210.398511 L22.9987779,210.398511 L20.5544136,210.242924 C20.5511479,210.288781 20.5201239,210.789933 20.5201239,211.64484 C20.5331866,215.005506 20.9479285,223.870657 25.6064264,232.223192 C27.9381246,236.389632 31.3801553,240.42014 36.3423617,243.366455 C41.3013025,246.319322 47.7281682,248.153604 55.8727835,248.1487 C57.2247766,248.1487 58.3220463,247.049759 58.3220463,245.692063 C58.3220463,244.336004 57.2247766,243.235435 55.8727835,243.235435 C48.4449858,243.230522 42.9716998,241.59277 38.8406098,239.141055 C35.7431088,237.296947 33.3787537,234.97789 31.5401738,232.429548 C28.7839367,228.610311 27.2327369,224.252253 26.3934561,220.413363 C25.5509097,216.577748 25.4186495,213.277678 25.4186495,211.64484 C25.4186495,211.276346 25.4251809,210.991377 25.4317123,210.806311 L25.4398765,210.601592 L25.4415093,210.557372 L25.4431422,210.554097 L25.4480407,210.477123 L25.4480407,125.523659 C25.4480407,124.167601 24.3507709,123.067031 22.9987779,123.067031 C21.6451519,123.067031 20.549515,124.167601 20.549515,125.523659" id="Fill-150" fill="#2C2D34"></path>
                <path d="M35.0099628,193.437953 L10.9859601,193.437953 C4.9264839,193.437953 0.0132626749,188.509957 0.0132626749,182.433898 L0.0132626749,95.6117597 C0.0132626749,89.5340626 4.9264839,84.6077051 10.9859601,84.6077051 L35.0099628,84.6077051 C41.069439,84.6077051 45.9810274,89.5340626 45.9810274,95.6117597 L45.9810274,182.433898 C45.9810274,188.509957 41.069439,193.437953 35.0099628,193.437953" id="Fill-151" fill="#2C2D34"></path>
                <path d="M0.0132626749,106.45859 L0.0132626749,182.433898 C0.0132626749,188.509957 4.9264839,193.437953 10.9859601,193.437953 L35.0099628,193.437953 C41.069439,193.437953 45.9810274,188.509957 45.9810274,182.433898 L45.9810274,158.291798 C32.0496204,150.921915 14.4394207,136.12974 0.0132626749,106.45859" id="Fill-152" fill="#1F2024"></path>
                <path d="M34.6033851,210.398511 C34.6033851,216.828324 29.4076823,222.039651 22.9987779,222.039651 C16.5882406,222.039651 11.3925378,216.828324 11.3925378,210.398511 C11.3925378,203.970335 16.5882406,198.759008 22.9987779,198.759008 C29.4076823,198.759008 34.6033851,203.970335 34.6033851,210.398511" id="Fill-153" fill="#1F2024"></path>
                <path d="M32.9460506,210.398511 C32.9460506,215.911183 28.491658,220.377333 22.9987779,220.377333 C17.5042649,220.377333 13.0498723,215.911183 13.0498723,210.398511 C13.0498723,204.889113 17.5042649,200.421326 22.9987779,200.421326 C28.491658,200.421326 32.9460506,204.889113 32.9460506,210.398511" id="Fill-154" fill="#2C2D34"></path>
                <path d="M15.5562846,203.795095 C22.6852722,207.100078 28.0034382,210.906214 31.9826739,214.661579 C32.5933568,213.367755 32.9460506,211.926533 32.9460506,210.398511 C32.9460506,204.889113 28.491658,200.421326 22.9987779,200.421326 C20.0319042,200.421326 17.3785361,201.72989 15.5562846,203.795095" id="Fill-155" fill="#48484E"></path>
                <path d="M33.62368,87.6752143 L12.3722429,87.6752143 C7.01325583,87.6752143 2.66826358,92.0332719 2.66826358,97.4100112 L2.66826358,99.9960213 C23.9392948,104.449069 36.2345942,116.758411 43.3276593,129.059565 L43.3276593,97.4100112 C43.3276593,92.0332719 38.9842999,87.6752143 33.62368,87.6752143" id="Fill-156" fill="#48484E"></path>
                <path d="M417.403571,125.523659 L417.403571,210.477123 L417.408469,210.554097 L417.408469,210.557372 C417.411735,210.613056 417.431329,210.997928 417.431329,211.643202 C417.446025,214.550211 416.980665,222.707853 412.975303,229.814059 C410.973439,233.376169 408.137193,236.68279 404.009369,239.139418 C399.879912,241.59277 394.406626,243.230522 386.977195,243.235435 C385.625202,243.235435 384.527932,244.336004 384.527932,245.692063 C384.527932,247.049759 385.625202,248.1487 386.977195,248.1487 C395.123443,248.153604 401.550309,246.319322 406.507617,243.366455 C410.227231,241.157128 413.099399,238.335281 415.280876,235.307078 C418.554724,230.759041 420.296966,225.767174 421.242382,221.468075 C422.184532,217.164063 422.329855,213.536443 422.329855,211.643202 C422.329855,210.789933 422.300463,210.288781 422.297198,210.244562 L419.852833,210.398511 L422.302096,210.398511 L422.302096,125.523659 C422.302096,124.167601 421.204827,123.067031 419.852833,123.067031 C418.50084,123.067031 417.403571,124.167601 417.403571,125.523659" id="Fill-157" fill="#2C2D34"></path>
                <path d="M407.840016,193.437953 L431.864018,193.437953 C437.923495,193.437953 442.836716,188.509957 442.836716,182.433898 L442.836716,95.6117597 C442.836716,89.5340626 437.923495,84.6077051 431.864018,84.6077051 L407.840016,84.6077051 C401.780539,84.6077051 396.868951,89.5340626 396.868951,95.6117597 L396.868951,182.433898 C396.868951,188.509957 401.780539,193.437953 407.840016,193.437953" id="Fill-158" fill="#2C2D34"></path>
                <path d="M442.836716,106.45859 L442.836716,182.433898 C442.836716,188.509957 437.923495,193.437953 431.864018,193.437953 L407.840016,193.437953 C401.780539,193.437953 396.868951,188.509957 396.868951,182.433898 L396.868951,158.291798 C410.800358,150.921915 428.408925,136.12974 442.836716,106.45859" id="Fill-159" fill="#1F2024"></path>
                <path d="M408.246593,210.398511 C408.246593,216.828324 413.442296,222.039651 419.852833,222.039651 C426.261738,222.039651 431.457441,216.828324 431.457441,210.398511 C431.457441,203.970335 426.261738,198.759008 419.852833,198.759008 C413.442296,198.759008 408.246593,203.970335 408.246593,210.398511" id="Fill-160" fill="#1F2024"></path>
                <path d="M409.903928,210.398511 C409.903928,215.911183 414.358321,220.377333 419.852833,220.377333 C425.345714,220.377333 429.800106,215.911183 429.800106,210.398511 C429.800106,204.889113 425.345714,200.421326 419.852833,200.421326 C414.358321,200.421326 409.903928,204.889113 409.903928,210.398511" id="Fill-161" fill="#2C2D34"></path>
                <path d="M427.295327,203.795095 C420.164706,207.100078 414.84654,210.906214 410.868937,214.661579 C410.256622,213.367755 409.903928,211.926533 409.903928,210.398511 C409.903928,204.889113 414.358321,200.421326 419.852833,200.421326 C422.816441,200.421326 425.471442,201.72989 427.295327,203.795095" id="Fill-162" fill="#48484E"></path>
                <path d="M409.226298,87.6752143 L430.477736,87.6752143 C435.836723,87.6752143 440.181715,92.0332719 440.181715,97.4100112 L440.181715,99.9960213 C418.910684,104.449069 406.615384,116.758411 399.522319,129.059565 L399.522319,97.4100112 C399.522319,92.0332719 403.867311,87.6752143 409.226298,87.6752143" id="Fill-163" fill="#48484E"></path>
            </g>
        </g>
    </g>
</svg>