<?xml version="1.0" encoding="UTF-8"?>
<svg width="97px" height="96px" viewBox="0 0 97 96" version="1.1" xmlns="http://www.w3.org/2000/svg" xmlns:xlink="http://www.w3.org/1999/xlink">
    <!-- Generator: Sketch 57.1 (83088) - https://sketch.com -->
    <title>snow-icon</title>
    <desc>Created with Sketch.</desc>
    <g id="Page-1" stroke="none" stroke-width="1" fill="none" fill-rule="evenodd">
        <g id="snow-icon">
            <path d="M66.774,68.546 C64.523,68.546 62.703,66.724 62.703,64.474 C62.703,62.226 64.523,60.402 66.774,60.402 C69.022,60.402 70.846,62.226 70.846,64.474 C70.846,66.724 69.022,68.546 66.774,68.546 Z M57.273,54.972 C55.021,54.972 53.201,53.152 53.201,50.9 C53.201,48.652 55.021,46.829 57.273,46.829 C59.52,46.829 61.345,48.652 61.345,50.9 C61.345,53.152 59.52,54.972 57.273,54.972 Z M47.771,68.546 C45.52,68.546 43.699,66.724 43.699,64.474 C43.699,62.226 45.52,60.402 47.771,60.402 C50.018,60.402 51.843,62.226 51.843,64.474 C51.843,66.724 50.018,68.546 47.771,68.546 Z M38.27,54.972 C36.018,54.972 34.198,53.152 34.198,50.9 C34.198,48.652 36.018,46.829 38.27,46.829 C40.517,46.829 42.341,48.652 42.341,50.9 C42.341,53.152 40.517,54.972 38.27,54.972 Z M28.768,68.546 C26.519,68.546 24.696,66.724 24.696,64.474 C24.696,62.226 26.519,60.402 28.768,60.402 C31.017,60.402 32.84,62.226 32.84,64.474 C32.84,66.724 31.017,68.546 28.768,68.546 Z M75.115,28.666 C74.069,28.666 73.045,28.743 72.033,28.906 C72.246,27.625 72.374,26.329 72.374,24.98 C72.374,11.19 61.198,-7.38964445e-13 47.395,-7.38964445e-13 C33.972,-7.38964445e-13 23.043,10.62 22.478,23.919 C9.951,24.556 2.52953214e-12,34.877 2.52953214e-12,47.555 C2.52953214e-12,60.652 10.608,71.261 23.711,71.261 L75.115,71.261 C86.874,71.261 96.418,61.725 96.418,49.96 C96.418,38.201 86.874,28.666 75.115,28.666 L75.115,28.666 Z" id="Fill-36-Copy" fill="#7F9A9E"></path>
            <path d="M28.768,87.549 C26.519,87.549 24.696,89.373 24.696,91.621 C24.696,93.871 26.519,95.693 28.768,95.693 C31.017,95.693 32.84,93.871 32.84,91.621 C32.84,89.373 31.017,87.549 28.768,87.549" id="Fill-37-Copy" fill="#A6BBBB"></path>
            <path d="M47.771,87.549 C45.52,87.549 43.699,89.373 43.699,91.621 C43.699,93.871 45.52,95.693 47.771,95.693 C50.018,95.693 51.843,93.871 51.843,91.621 C51.843,89.373 50.018,87.549 47.771,87.549" id="Fill-38-Copy" fill="#A6BBBB"></path>
            <path d="M66.774,87.549 C64.523,87.549 62.703,89.373 62.703,91.621 C62.703,93.871 64.523,95.693 66.774,95.693 C69.022,95.693 70.846,93.871 70.846,91.621 C70.846,89.373 69.022,87.549 66.774,87.549" id="Fill-39-Copy" fill="#A6BBBB"></path>
            <path d="M38.27,73.975 C36.018,73.975 34.198,75.799 34.198,78.047 C34.198,80.298 36.018,82.119 38.27,82.119 C40.517,82.119 42.341,80.298 42.341,78.047 C42.341,75.799 40.517,73.975 38.27,73.975" id="Fill-40-Copy" fill="#A6BBBB"></path>
            <path d="M57.273,73.975 C55.021,73.975 53.201,75.799 53.201,78.047 C53.201,80.298 55.021,82.119 57.273,82.119 C59.52,82.119 61.345,80.298 61.345,78.047 C61.345,75.799 59.52,73.975 57.273,73.975" id="Fill-41-Copy" fill="#A6BBBB"></path>
        </g>
    </g>
</svg>