<?xml version="1.0" encoding="UTF-8"?>
<svg width="98px" height="101px" viewBox="0 0 98 101" version="1.1" xmlns="http://www.w3.org/2000/svg" xmlns:xlink="http://www.w3.org/1999/xlink">
    <!-- Generator: Sketch 57.1 (83088) - https://sketch.com -->
    <title>storm-icon</title>
    <desc>Created with Sketch.</desc>
    <g id="Page-1" stroke="none" stroke-width="1" fill="none" fill-rule="evenodd">
        <g id="storm-icon" transform="translate(-0.000000, 0.000000)">
            <path d="M96.569,15.893 L95.445,15.734 C94.883,15.651 94.218,15.163 93.967,14.659 L93.46,13.635 C93.209,13.125 92.797,13.125 92.547,13.635 L92.043,14.659 C91.79,15.163 91.126,15.651 90.563,15.734 L89.439,15.893 C88.872,15.976 88.75,16.366 89.156,16.769 L89.969,17.558 C90.378,17.959 90.633,18.735 90.537,19.297 L90.344,20.417 C90.245,20.979 90.581,21.221 91.082,20.957 L92.091,20.43 C92.595,20.164 93.416,20.164 93.92,20.43 L94.926,20.957 C95.43,21.221 95.759,20.979 95.663,20.417 L95.473,19.297 C95.377,18.735 95.632,17.959 96.036,17.558 L96.853,16.769 C97.26,16.366 97.132,15.976 96.569,15.893" id="Fill-95-Copy" fill="#E3BC51"></path>
            <path d="M92.061,25.952 C86.573,25.943 81.463,23.001 78.732,18.273 C75.998,13.537 76.006,7.638 78.741,2.889 C79.086,2.29 79.057,1.554 78.711,0.963 C78.367,0.366 77.704,2.61479727e-12 77.015,2.61479727e-12 C73.657,2.61479727e-12 70.347,0.882 67.44,2.558 C64.609,4.195 62.356,6.45 60.741,9.05 C68.054,13.938 73.041,22.045 73.622,31.341 C78.234,31.847 82.47,33.601 86.011,36.24 C86.235,36.122 86.471,36.031 86.693,35.904 C89.602,34.218 92.037,31.775 93.728,28.838 C94.07,28.238 94.07,27.508 93.728,26.918 C93.381,26.318 92.749,25.954 92.061,25.952" id="Fill-96-Copy" fill="#6DAEB4"></path>
            <path d="M70.809,36.641 C69.824,36.641 68.861,36.715 67.902,36.87 C68.1,35.658 68.225,34.438 68.225,33.17 C68.225,20.169 57.692,9.617 44.676,9.617 C32.026,9.617 21.724,19.628 21.188,32.165 C9.381,32.769 -2.84217094e-13,42.497 -2.84217094e-13,54.448 C-2.84217094e-13,62.334 4.095,69.249 10.262,73.224 L17.255,53.018 C18.556,49.257 22.396,46.524 26.384,46.524 L35.861,46.524 C38.6,46.524 40.991,47.823 42.259,49.998 C43.523,52.172 43.473,54.894 42.124,57.274 L37.746,64.982 L41.852,64.982 C43.458,64.982 44.896,65.418 46.062,66.187 L50.619,53.018 C51.926,49.252 55.764,46.524 59.747,46.524 L69.225,46.524 C71.964,46.524 74.355,47.823 75.623,49.998 C76.887,52.172 76.835,54.894 75.483,57.274 L71.11,64.982 L75.217,64.982 C78.188,64.982 80.615,66.427 81.716,68.839 C82.376,70.293 82.446,71.877 81.977,73.396 C87.351,69.794 90.89,63.668 90.89,56.712 C90.89,45.628 81.895,36.641 70.809,36.641" id="Fill-97-Copy" fill="#6B8182"></path>
            <path d="M41.852,70.438 L31.374,70.438 C29.726,70.438 29.044,69.266 29.859,67.832 L37.378,54.578 C38.193,53.146 37.511,51.979 35.861,51.979 L26.384,51.979 C24.734,51.979 22.947,53.249 22.411,54.803 L15.387,75.089 C14.851,76.643 15.76,77.922 17.401,77.922 L24.887,77.922 C26.534,77.922 27.342,79.155 26.68,80.664 L18.604,99.13 C17.941,100.634 18.292,100.854 19.375,99.616 L42.88,72.692 C43.959,71.45 43.497,70.438 41.852,70.438" id="Fill-98-Copy" fill="#BD9C3F"></path>
            <path d="M75.217,70.438 L64.738,70.438 C63.092,70.438 62.41,69.266 63.221,67.832 L70.741,54.578 C71.554,53.146 70.874,51.979 69.225,51.979 L59.747,51.979 C58.098,51.979 56.313,53.249 55.772,54.803 L48.751,75.089 C48.213,76.643 49.121,77.922 50.762,77.922 L58.25,77.922 C59.895,77.922 60.706,79.155 60.044,80.664 L51.965,99.13 C51.307,100.634 51.652,100.854 52.737,99.616 L76.242,72.692 C77.32,71.45 76.858,70.438 75.217,70.438" id="Fill-99-Copy" fill="#BD9C3F"></path>
        </g>
    </g>
</svg>