<?xml version="1.0" encoding="UTF-8"?>
<svg width="214px" height="204px" viewBox="0 0 214 204" version="1.1" xmlns="http://www.w3.org/2000/svg" xmlns:xlink="http://www.w3.org/1999/xlink">
    <!-- Generator: Sketch 57.1 (83088) - https://sketch.com -->
    <title>pricing_icon</title>
    <desc>Created with Sketch.</desc>
    <defs>
        <path d="M199.938,100.616 C199.938,155.693 155.29,200.342 100.212,200.342 C45.135,200.342 0.486,155.693 0.486,100.616 C0.486,45.538 45.135,0.889 100.212,0.889 C155.29,0.889 199.938,45.538 199.938,100.616" id="path-1"></path>
        <path d="M199.938,100.616 C199.938,155.693 155.29,200.342 100.212,200.342 C45.135,200.342 0.486,155.693 0.486,100.616 C0.486,45.538 45.135,0.889 100.212,0.889 C155.29,0.889 199.938,45.538 199.938,100.616" id="path-3"></path>
    </defs>
    <g id="Page-1" stroke="none" stroke-width="1" fill="none" fill-rule="evenodd">
        <g id="pricing_icon">
            <path d="M105.212,203.342 C50.135,203.342 5.486,158.693 5.486,103.616 C5.486,91.695 7.579,80.261 11.415,69.664 L78.055,187.31 C79.148,189.24 81.158,190.323 83.227,190.323 C84.219,190.323 85.224,190.074 86.148,189.551 L139.202,159.499 C142.056,157.882 143.059,154.259 141.442,151.405 L135.972,141.748 C136.88,140.594 137.57,139.237 137.963,137.725 C138.238,136.663 138.344,135.598 138.306,134.556 C140.607,134.82 142.916,134.961 145.22,134.961 C145.319,134.961 145.417,134.961 145.516,134.96 C149.939,134.94 154.346,134.424 158.685,133.427 L158.87,133.389 L159.075,133.335 C160.106,133.092 161.131,132.827 162.15,132.529 L184.72,125.896 L184.72,127.101 C184.72,129.79 186.899,131.969 189.588,131.969 L200.85,131.969 C188.635,173.235 150.44,203.342 105.212,203.342 M101.249,80.436 L101.242,80.436 L69.646,24.657 C68.554,22.728 66.544,21.645 64.475,21.645 C63.483,21.645 62.478,21.893 61.554,22.417 L26.64,42.194 C44.894,18.876 73.303,3.889 105.212,3.889 C146.107,3.889 181.251,28.501 196.639,63.723 L189.588,63.723 C186.899,63.723 184.72,65.902 184.72,68.59 L184.72,70.825 L118.739,67.174 C118.511,67.162 118.284,67.156 118.058,67.156 C114.743,67.156 111.667,68.482 109.373,70.921 L99.876,78.023 L101.249,80.436" id="Fill-65" fill="#9EC8A6"></path>
            <g id="Group-68" transform="translate(5.000000, 3.000000)">
                <mask id="mask-2" fill="white">
                    <use xlink:href="#path-1"></use>
                </mask>
                <g id="Clip-67"></g>
                <path d="M130.972,138.748 L122.687,124.121 L130.147,126.495 C131.502,126.718 132.866,126.817 134.236,126.817 C141.913,126.817 149.763,123.688 157.15,121.529 L179.72,114.896 L179.72,116.101 C179.72,118.79 181.899,120.969 184.588,120.969 L197.86,120.969 C197.298,123.676 196.626,126.346 195.85,128.969 L184.588,128.969 C181.899,128.969 179.72,126.79 179.72,124.101 L179.72,122.896 L157.15,129.529 C156.131,129.827 155.106,130.092 154.075,130.335 L153.87,130.389 L153.685,130.427 C149.346,131.424 144.939,131.94 140.516,131.96 C140.417,131.961 140.319,131.961 140.22,131.961 C137.916,131.961 135.607,131.82 133.306,131.556 C133.344,132.598 133.238,133.663 132.963,134.725 C132.57,136.237 131.88,137.594 130.972,138.748 M105.675,94 L105.625,94 L96.242,77.436 L96.249,77.436 L98.664,81.68 L98.667,81.684 L105.675,94" id="Fill-66" fill="#9EC8A6" mask="url(#mask-2)"></path>
            </g>
            <path d="M83.227,190.323 C81.158,190.323 79.148,189.24 78.055,187.31 L6.259,60.562 C4.643,57.709 5.646,54.085 8.5,52.469 L61.554,22.417 C62.478,21.893 63.483,21.645 64.475,21.645 C66.544,21.645 68.554,22.728 69.646,24.657 L110.625,97 L101.927,97 L67.283,35.84 C66.19,33.911 64.181,32.827 62.111,32.827 C61.12,32.827 60.115,33.076 59.19,33.6 L19.306,56.192 C16.452,57.809 15.449,61.432 17.065,64.286 L80.419,176.13 C81.513,178.06 83.523,179.143 85.592,179.143 C86.583,179.143 87.589,178.894 88.513,178.371 L128.398,155.778 C131.251,154.162 132.254,150.539 130.637,147.685 L117.075,123.743 L127.687,127.121 L141.442,151.405 C143.059,154.259 142.056,157.882 139.202,159.499 L86.148,189.551 C85.224,190.074 84.219,190.323 83.227,190.323 M85.887,172.117 L56.611,120.434 C57.225,120.758 57.867,121.032 58.533,121.252 C61.312,123.215 64.873,124.227 68.755,124.227 C70.066,124.228 71.414,124.112 72.782,123.879 L80.962,138.32 C81.73,139.677 83.168,140.509 84.717,140.509 C84.784,140.509 84.852,140.508 84.92,140.504 C86.545,140.429 87.989,139.445 88.656,137.96 L91.241,132.202 C91.294,132.172 91.365,132.159 91.453,132.159 C92.166,132.159 93.981,133.071 95.793,133.983 C97.605,134.896 99.414,135.808 100.113,135.808 C100.274,135.808 100.376,135.759 100.406,135.651 C100.712,134.548 100.566,133.369 100.002,132.373 L94.283,122.276 L108.604,122.454 L124.384,150.311 L85.887,172.117 M48.494,106.104 L23.319,61.66 L61.815,39.854 L92.684,94.348 C89.853,90.011 84.762,87.741 78.948,87.741 C77.636,87.741 76.287,87.857 74.919,88.09 L64.665,69.988 C64.101,68.992 63.163,68.261 62.06,67.955 C61.682,67.851 61.295,67.799 60.909,67.799 C60.17,67.799 59.436,67.989 58.781,68.359 L49.328,73.714 C47.254,74.889 46.524,77.523 47.699,79.598 L57.954,97.701 C57.811,97.867 57.671,98.034 57.535,98.202 C55.588,99.127 53.87,100.535 52.568,102.248 C50.801,103.017 49.356,104.389 48.494,106.104 M94.186,97 L94.021,97 C93.872,96.599 93.704,96.204 93.515,95.815 L94.186,97" id="Fill-69" fill="#9EC8A6"></path>
            <path d="M85.592,179.143 C83.523,179.143 81.513,178.06 80.419,176.13 L17.065,64.286 C15.449,61.432 16.452,57.809 19.306,56.192 L59.19,33.6 C60.115,33.076 61.12,32.827 62.111,32.827 C64.181,32.827 66.19,33.911 67.283,35.84 L101.927,97 L94.186,97 L93.515,95.815 C93.392,95.564 93.261,95.314 93.122,95.068 C92.983,94.822 92.837,94.582 92.684,94.348 L61.815,39.854 L23.319,61.66 L48.494,106.104 C47.937,107.213 47.624,108.464 47.624,109.79 C47.624,113.288 49.809,116.276 52.889,117.463 C53.923,118.672 55.189,119.685 56.611,120.434 L85.887,172.117 L124.384,150.311 L108.604,122.454 L113.205,122.511 L117.075,123.743 L130.637,147.685 C132.254,150.539 131.251,154.162 128.398,155.778 L88.513,178.371 C87.589,178.894 86.583,179.143 85.592,179.143" id="Fill-70" fill="#9EC8A6"></path>
            <path d="M84.717,140.509 C83.168,140.509 81.73,139.677 80.962,138.32 L72.782,123.879 C74.788,123.537 76.836,122.941 78.87,122.084 L94.283,122.276 L100.002,132.373 C100.566,133.369 100.712,134.548 100.406,135.651 C100.376,135.759 100.274,135.808 100.113,135.808 C99.414,135.808 97.605,134.896 95.793,133.983 C93.981,133.071 92.166,132.159 91.453,132.159 C91.365,132.159 91.294,132.172 91.241,132.202 L88.656,137.96 C87.989,139.445 86.545,140.429 84.92,140.504 C84.852,140.508 84.784,140.509 84.717,140.509 M57.954,97.701 L47.699,79.598 C46.524,77.523 47.254,74.889 49.328,73.714 L58.781,68.359 C59.436,67.989 60.17,67.799 60.909,67.799 C61.295,67.799 61.682,67.851 62.06,67.955 C63.163,68.261 64.101,68.992 64.665,69.988 L74.919,88.09 C71.851,88.613 68.688,89.729 65.626,91.464 C62.564,93.199 59.98,95.339 57.954,97.701" id="Fill-71" fill="#9EC8A6"></path>
            <path d="M89.376,97 L64.848,97 C65.735,96.328 66.687,95.7 67.7,95.126 C71.434,93.011 75.379,91.981 78.927,91.981 C83.504,91.981 87.421,93.695 89.376,97" id="Fill-72" fill="#9EC8A6"></path>
            <path d="M68.755,124.227006 C64.873,124.227006 61.312,123.215 58.533,121.252 C59.717,121.643 60.974,121.862 62.269,121.878 L78.87,122.084 C76.836,122.941 74.788,123.537 72.782,123.879 C71.414,124.112 70.066,124.228 68.755,124.227006 M57.535,98.202 C57.671,98.034 57.811,97.867 57.954,97.701 C59.98,95.339 62.564,93.199 65.626,91.464 C68.688,89.729 71.851,88.613 74.919,88.09 C76.287,87.857 77.636,87.741 78.948,87.741 C84.762,87.741 89.853,90.011 92.684,94.348 C92.837,94.582 92.983,94.822 93.122,95.068 C93.261,95.314 93.392,95.564 93.515,95.815 C93.704,96.204 93.872,96.599 94.021,97 L89.376,97 C87.421,93.695 83.504,91.981 78.927,91.981 C75.379,91.981 71.434,93.011 67.7,95.126 C66.687,95.7 65.735,96.328 64.848,97 L62.742,97 C60.922,97 59.15,97.435 57.535,98.202" id="Fill-73" fill="#9EC8A6"></path>
            <path d="M139.236,129.817 C137.866,129.817 136.502,129.718 135.147,129.495 L127.687,127.121 L113.205,122.511 L108.604,122.454 L94.283,122.276 L78.87,122.084 L62.269,121.878 C60.974,121.862 59.717,121.643 58.533,121.252 C57.867,121.032 57.225,120.758 56.611,120.434 C55.189,119.685 53.923,118.672 52.889,117.463 C53.806,117.816 54.803,118.01 55.845,118.01 L66.438,118.01 C69.019,118.01 71.111,115.917 71.111,113.336 L71.111,106.243 C71.111,103.662 69.019,101.569 66.438,101.569 L55.844,101.569 C54.679,101.569 53.571,101.812 52.568,102.248 C53.87,100.535 55.588,99.127 57.535,98.202 C59.15,97.435 60.922,97 62.742,97 L110.675,97 L103.667,84.684 L111.177,97.087 L133.436,84.68 L103.664,84.68 L99.876,78.023 L109.373,70.921 C111.667,68.482 114.743,67.156 118.058,67.156 C118.284,67.156 118.511,67.162 118.739,67.174 L184.72,70.825 L184.72,117.896 L162.15,124.529 C154.763,126.688 146.913,129.817 139.236,129.817" id="Fill-74" fill="#9EC8A6"></path>
            <path d="M66.438,118.01 L55.845,118.01 C54.803,118.01 53.806,117.816 52.889,117.463 C49.809,116.276 47.624,113.288 47.624,109.79 C47.624,108.464 47.937,107.213 48.494,106.104 C49.356,104.389 50.801,103.017 52.568,102.248 C53.571,101.812 54.679,101.569 55.844,101.569 L66.438,101.569 C69.019,101.569 71.111,103.662 71.111,106.243 L71.111,113.336 C71.111,115.917 69.019,118.01 66.438,118.01" id="Fill-75" fill="#9EC8A6"></path>
            <path d="M213.743,123.969 L189.588,123.969 C186.899,123.969 184.72,121.79 184.72,119.101 L184.72,68.59 C184.72,65.902 186.899,63.723 189.588,63.723 L213.743,63.723 L213.743,123.969" id="Fill-76" fill="#9EC8A6"></path>
            <polyline id="Fill-77" fill="#9EC8A6" points="111.177 97.087 103.667 84.684 103.664 84.68 133.436 84.68 111.177 97.087"></polyline>
            <path d="M199.938,100.616 C199.938,155.693 155.29,200.342 100.212,200.342 C45.135,200.342 0.486,155.693 0.486,100.616 C0.486,45.538 45.135,0.889 100.212,0.889 C155.29,0.889 199.938,45.538 199.938,100.616" id="Fill-78" fill="#36A25D"></path>
            <g id="Group-81">
                <mask id="mask-4" fill="white">
                    <use xlink:href="#path-3"></use>
                </mask>
                <g id="Clip-80"></g>
                <path d="M184.588,68.723 C181.899,68.723 179.72,70.902 179.72,73.59 L179.72,75.825 L113.739,72.174 C110.166,71.98 106.824,73.315 104.373,75.921 L102.942,77.436 L42.993,77.436 C43.932,78.96 44.911,80.456 45.862,81.943 C49.38,87.442 52.584,93.147 55.964,98.732 C63.221,110.722 70.525,122.718 78.185,134.455 C82.307,140.768 86.588,146.984 90.871,153.201 C92.359,152.52 93.673,151.522 94.716,150.286 L110.924,150.286 C114.204,150.286 116.862,147.627 116.862,144.348 L116.862,141.892 L119.565,142.595 C120.492,142.835 121.422,142.951 122.337,142.951 C127.22,142.951 131.677,139.671 132.963,134.725 C133.238,133.663 133.344,132.598 133.306,131.556 C135.706,131.831 138.113,131.973 140.516,131.96 C144.94,131.94 149.346,131.424 153.685,130.427 L153.87,130.389 L154.075,130.335 C155.106,130.092 156.131,129.827 157.15,129.529 L179.72,122.896 L179.72,124.101 C179.72,126.79 181.899,128.969 184.588,128.969 L208.743,128.969 L208.743,68.723 L184.588,68.723" id="Fill-79" fill="#2D904F" mask="url(#mask-4)"></path>
            </g>
            <path d="M136.442,148.405 C138.06,151.259 137.056,154.882 134.202,156.499 L81.148,186.551 C78.296,188.167 74.672,187.165 73.055,184.311 L1.259,57.562 C-0.357,54.709 0.646,51.085 3.5,49.469 L56.554,19.417 C59.406,17.801 63.03,18.803 64.646,21.657 L136.442,148.405" id="Fill-82" fill="#D4CBBE"></path>
            <path d="M57.111,29.827 C56.12,29.827 55.115,30.076 54.19,30.6 L14.306,53.192 C11.452,54.809 10.449,58.432 12.065,61.286 L75.419,173.13 C76.513,175.06 78.523,176.143 80.592,176.143 C81.583,176.143 82.589,175.894 83.513,175.371 L123.398,152.778 C126.251,151.162 127.254,147.539 125.637,144.685 L62.283,32.84 C61.19,30.911 59.181,29.827 57.111,29.827 Z M56.815,36.854 L119.384,147.311 L80.887,169.117 L18.319,58.66 L56.815,36.854 L56.815,36.854 Z" id="Fill-83" fill="#717C36"></path>
            <path d="M83.656,134.96 C82.989,136.445 81.545,137.429 79.92,137.504 C78.294,137.581 76.764,136.736 75.962,135.32 L42.699,76.598 C41.524,74.523 42.254,71.889 44.328,70.714 L53.781,65.359 C54.777,64.795 55.957,64.65 57.06,64.955 C58.163,65.261 59.101,65.992 59.665,66.988 L95.002,129.373 C95.566,130.369 95.712,131.548 95.406,132.651 C95.102,133.755 87.237,128.638 86.241,129.202 L83.656,134.96" id="Fill-84" fill="#717C36"></path>
            <path d="M75.001,113.842 C66.382,118.725 56.641,117.823 53.243,111.825 C49.847,105.828 54.081,97.009 62.7,92.126 C71.32,87.243 81.063,88.146 84.459,94.144 C87.856,100.141 83.621,108.96 75.001,113.842" id="Fill-85" fill="#717C36"></path>
            <path d="M88.122,92.068 C83.51,83.926 71.433,82.342 60.626,88.464 C49.82,94.585 44.968,105.757 49.58,113.9 C54.192,122.042 66.271,123.626 77.076,117.505 C87.883,111.384 92.734,100.21 88.122,92.068 Z M84.459,94.144 C87.856,100.141 83.621,108.96 75.001,113.842 C66.382,118.725 56.641,117.823 53.243,111.825 C49.847,105.828 54.081,97.009 62.7,92.126 C71.32,87.243 81.063,88.146 84.459,94.144 L84.459,94.144 Z" id="Fill-86" fill="#D4CBBE"></path>
            <path d="M45,106.593 C45,99.892 51.039,94 57.742,94 L105.675,94 L94.876,75.023 L104.373,67.921 C106.824,65.315 110.166,63.98 113.739,64.174 L180,67.84 L180,114.814 L157.15,121.529 C148.444,124.073 139.098,127.965 130.146,126.495 L108.205,119.511 L57.27,118.878 C50.628,118.795 45,113.386 45,106.743 L45,106.593" id="Fill-87" fill="#F0BC76"></path>
            <path d="M61.438,115.01 C64.019,115.01 66.111,112.917 66.111,110.336 L66.111,103.243 C66.111,100.662 64.019,98.569 61.438,98.569 L50.844,98.569 C46.305,98.569 42.624,102.249 42.624,106.79 C42.624,111.329 46.305,115.01 50.845,115.01 L61.438,115.01" id="Fill-88" fill="#F0CEA6"></path>
            <path d="M208.743,120.969 L184.588,120.969 C181.899,120.969 179.72,118.79 179.72,116.101 L179.72,65.59 C179.72,62.902 181.899,60.723 184.588,60.723 L208.743,60.723 L208.743,120.969" id="Fill-89" fill="#F0CEA6"></path>
            <polyline id="Fill-90" fill="#D79F61" points="106.177 94.087 128.437 81.68 98.664 81.68 106.177 94.087"></polyline>
        </g>
    </g>
</svg>