<?xml version="1.0" encoding="UTF-8"?>
<svg width="49px" height="49px" viewBox="0 0 49 49" version="1.1" xmlns="http://www.w3.org/2000/svg" xmlns:xlink="http://www.w3.org/1999/xlink">
    <!-- Generator: Sketch 57.1 (83088) - https://sketch.com -->
    <title>stop_sign_text</title>
    <desc>Created with Sketch.</desc>
    <g id="Page-1" stroke="none" stroke-width="1" fill="none" fill-rule="evenodd">
        <g id="stop_sign_text">
            <polyline id="Fill-6" fill="#C9242A" points="34.768 0.347 14.984 0.347 0.996 14.335 0.996 34.119 14.984 48.108 34.768 48.108 48.756 34.119 48.756 14.335 34.768 0.347"></polyline>
            <path d="M16.457,44.553 L33.295,44.553 L45.202,32.646 L45.202,15.808 L33.295,3.902 L16.457,3.902 L4.55,15.808 L4.55,32.646 L16.457,44.553 Z M33.795,45.761 L15.956,45.761 L3.342,33.146 L3.342,15.308 L15.956,2.693 L33.795,2.693 L46.41,15.308 L46.41,33.146 L33.795,45.761 L33.795,45.761 Z" id="Fill-7" fill="#FFFFFE"></path>
            <path d="M14.164,20.62 L14.164,19.19 C14.164,18.54 13.846,18.214 13.21,18.214 L12.87,18.214 C12.249,18.214 11.94,18.54 11.94,19.19 L11.94,21.89 C11.94,22.193 12,22.397 12.121,22.503 C12.242,22.609 12.439,22.745 12.711,22.911 L14.776,24.023 C15.23,24.28 15.551,24.481 15.741,24.624 C15.93,24.769 16.077,24.942 16.183,25.146 C16.289,25.351 16.342,25.74 16.342,26.315 L16.342,29.787 C16.342,31.617 15.464,32.532 13.709,32.532 L12.371,32.532 C10.631,32.532 9.761,31.534 9.761,29.537 L9.761,28.72 L11.94,28.72 L11.94,29.605 C11.94,30.24 12.265,30.558 12.915,30.558 L13.301,30.558 C13.876,30.558 14.164,30.24 14.164,29.605 L14.164,26.837 C14.164,26.534 14.103,26.33 13.982,26.224 C13.861,26.119 13.665,25.982 13.392,25.816 L11.327,24.659 C10.873,24.416 10.544,24.212 10.34,24.046 C10.136,23.879 9.988,23.664 9.897,23.399 C9.807,23.135 9.761,22.79 9.761,22.367 L9.761,19.031 C9.761,17.17 10.631,16.24 12.371,16.24 L13.732,16.24 C15.472,16.24 16.342,17.17 16.342,19.031 L16.342,20.62 L14.164,20.62" id="Fill-8" fill="#FFFFFE"></path>
            <polyline id="Fill-9" fill="#FFFFFE" points="21.628 18.214 21.628 32.532 19.45 32.532 19.45 18.214 17.363 18.214 17.363 16.24 23.716 16.24 23.716 18.214 21.628 18.214"></polyline>
            <path d="M28.004,30.558 L29.116,30.558 C29.691,30.558 29.979,30.24 29.979,29.605 L29.979,19.167 C29.979,18.532 29.653,18.214 29.003,18.214 L27.982,18.214 C27.347,18.214 27.029,18.532 27.029,19.167 L27.029,29.605 C27.029,30.24 27.354,30.558 28.004,30.558 Z M27.482,32.532 C25.727,32.532 24.851,31.61 24.851,29.764 L24.851,19.031 C24.851,17.17 25.72,16.24 27.46,16.24 L29.547,16.24 C31.287,16.24 32.157,17.17 32.157,19.031 L32.157,29.764 C32.157,31.61 31.279,32.532 29.525,32.532 L27.482,32.532 L27.482,32.532 Z" id="Fill-10" fill="#FFFFFE"></path>
            <path d="M36.264,24.659 L37.648,24.659 C38.223,24.659 38.51,24.341 38.51,23.706 L38.51,19.167 C38.51,18.532 38.185,18.214 37.535,18.214 L36.264,18.214 L36.264,24.659 Z M34.085,16.24 L38.057,16.24 C39.811,16.24 40.688,17.17 40.688,19.031 L40.688,23.864 C40.688,25.71 39.818,26.633 38.079,26.633 L36.264,26.633 L36.264,32.532 L34.085,32.532 L34.085,16.24 L34.085,16.24 Z" id="Fill-11" fill="#FFFFFE"></path>
        </g>
    </g>
</svg>